%
M48
M72
T01C0.01575
T02C0.01969
T03C0.04000
T04C0.05200
T05C0.11800
T06C0.13780
%
T01
X91250Y119684
X105000Y150934
X140000Y115934
X110000Y193434
X110000Y200934
X120000Y223434
X145000Y208434
X77500Y208434
X62500Y260934
T02
X72500Y70934
X137500Y70934
X157500Y70934
X157500Y90934
X157500Y110934
X157500Y158434
X75000Y220934
X205000Y243434
X260000Y229684
T03
X260000Y238434
X260000Y248434
X250000Y248434
X250000Y238434
X240000Y238434
X240000Y248434
X230000Y248434
X220000Y248434
X220000Y238434
X230000Y238434
X230000Y268434
X220000Y268434
X210000Y268434
X210000Y278434
X220000Y278434
X230000Y278434
X240000Y278434
X250000Y278434
X260000Y278434
X260000Y268434
X250000Y268434
X240000Y268434
X200000Y268434
X190000Y268434
X180000Y268434
X180000Y278434
X190000Y278434
X200000Y278434
X170000Y278434
X160000Y278434
X150000Y278434
X140000Y278434
X130000Y278434
X120000Y278434
X110000Y278434
X100000Y278434
X90000Y278434
X80000Y278434
X70000Y278434
X70000Y268434
X80000Y268434
X90000Y268434
X100000Y268434
X110000Y268434
X120000Y268434
X130000Y268434
X140000Y268434
X150000Y268434
X160000Y268434
X170000Y268434
X170000Y248434
X160000Y248434
X150000Y248434
X150000Y238434
X160000Y238434
X170000Y238434
X180000Y238434
X180000Y248434
X190000Y248434
X190000Y238434
X130000Y238434
X120000Y238434
X110000Y238434
X100000Y238434
X100000Y255934
X90000Y255934
X80000Y255934
X70000Y255934
X55000Y217184
X55000Y207184
X55000Y193434
X55000Y183434
X55000Y173434
X55000Y163434
T04
X89000Y172434
X89000Y219434
X137000Y219434
X145000Y195934
X137000Y172434
T05
X73937Y132184
X62126Y113680
X50315Y132184
T06
X50883Y80489
X50882Y273402
X279197Y273374
M30
