%
M48
M72
T01C0.01575
T02C0.01969
T03C0.03150
T04C0.03937
T05C0.04000
T06C0.05200
T07C0.13780
%
T01
X87500Y115934
X105000Y150934
X140000Y115934
X110000Y193434
X110000Y200934
X120000Y223434
X145000Y208434
X77500Y208434
X62500Y260934
T02
X72500Y70934
X137500Y70934
X157500Y70934
X157500Y90934
X157500Y110934
X157500Y158434
X75000Y220934
X205000Y243434
X280000Y250934
T03
X62500Y112036
X50689Y130934
T04
X74311Y130934
T05
X55000Y168434
X55000Y178434
X55000Y188434
X55000Y200934
X55000Y210934
X100000Y238434
X110000Y238434
X120000Y238434
X130000Y238434
X150000Y238434
X150000Y248434
X160000Y248434
X170000Y248434
X170000Y238434
X160000Y238434
X180000Y238434
X180000Y248434
X190000Y248434
X190000Y238434
X190000Y268434
X180000Y268434
X180000Y278434
X190000Y278434
X200000Y278434
X210000Y278434
X220000Y278434
X230000Y278434
X240000Y278434
X250000Y278434
X260000Y278434
X260000Y268434
X250000Y268434
X240000Y268434
X230000Y268434
X220000Y268434
X210000Y268434
X200000Y268434
X220000Y248434
X230000Y248434
X240000Y248434
X240000Y238434
X230000Y238434
X220000Y238434
X250000Y238434
X250000Y248434
X260000Y248434
X260000Y238434
X170000Y268434
X160000Y268434
X150000Y268434
X140000Y268434
X140000Y278434
X150000Y278434
X160000Y278434
X170000Y278434
X130000Y278434
X120000Y278434
X110000Y278434
X100000Y278434
X90000Y278434
X80000Y278434
X70000Y278434
X70000Y268434
X80000Y268434
X90000Y268434
X100000Y268434
X110000Y268434
X120000Y268434
X130000Y268434
X100000Y255934
X90000Y255934
X80000Y255934
X70000Y255934
T06
X89000Y219434
X89000Y172434
X137000Y172434
X145000Y195934
X137000Y219434
T07
X50882Y273402
X50883Y80489
X279197Y273374
M30
