G75*
%MOIN*%
%OFA0B0*%
%FSLAX25Y25*%
%IPPOS*%
%LPD*%
%AMOC8*
5,1,8,0,0,1.08239X$1,22.5*
%
%ADD10R,0.07887X0.07099*%
%ADD11R,0.06706X0.05918*%
%ADD12R,0.10249X0.07887*%
%ADD13R,0.09461X0.07887*%
%ADD14R,0.13792X0.08792*%
%ADD15OC8,0.06800*%
%ADD16C,0.06800*%
%ADD17C,0.08600*%
%ADD18R,0.04737X0.06312*%
%ADD19R,0.05918X0.06706*%
%ADD20R,0.04800X0.11100*%
%ADD21R,0.40800X0.36000*%
%ADD22C,0.09400*%
%ADD23R,0.07400X0.04000*%
%ADD24R,0.06312X0.07887*%
%ADD25R,0.07887X0.10249*%
%ADD26C,0.18580*%
D10*
X0090000Y0147922D03*
X0090000Y0158945D03*
D11*
X0117500Y0147174D03*
X0117500Y0139693D03*
X0080000Y0099674D03*
X0080000Y0092193D03*
D12*
X0120000Y0187961D03*
X0120000Y0203906D03*
D13*
X0105000Y0160973D03*
X0105000Y0140894D03*
D14*
X0147500Y0146937D03*
X0147500Y0129930D03*
D15*
X0150000Y0238434D03*
X0150000Y0248434D03*
X0160000Y0248434D03*
X0170000Y0248434D03*
X0170000Y0238434D03*
X0160000Y0238434D03*
X0180000Y0238434D03*
X0180000Y0248434D03*
X0190000Y0248434D03*
X0190000Y0238434D03*
X0190000Y0268434D03*
X0180000Y0268434D03*
X0180000Y0278434D03*
X0190000Y0278434D03*
X0200000Y0278434D03*
X0210000Y0278434D03*
X0220000Y0278434D03*
X0230000Y0278434D03*
X0240000Y0278434D03*
X0250000Y0278434D03*
X0260000Y0278434D03*
X0260000Y0268434D03*
X0250000Y0268434D03*
X0240000Y0268434D03*
X0230000Y0268434D03*
X0220000Y0268434D03*
X0210000Y0268434D03*
X0200000Y0268434D03*
X0220000Y0248434D03*
X0230000Y0248434D03*
X0240000Y0248434D03*
X0240000Y0238434D03*
X0230000Y0238434D03*
X0220000Y0238434D03*
X0250000Y0238434D03*
X0250000Y0248434D03*
X0260000Y0248434D03*
X0260000Y0238434D03*
X0170000Y0268434D03*
X0160000Y0268434D03*
X0150000Y0268434D03*
X0140000Y0268434D03*
X0140000Y0278434D03*
X0150000Y0278434D03*
X0160000Y0278434D03*
X0170000Y0278434D03*
X0130000Y0278434D03*
X0120000Y0278434D03*
X0110000Y0278434D03*
X0100000Y0278434D03*
X0090000Y0278434D03*
X0080000Y0278434D03*
X0070000Y0278434D03*
X0070000Y0268434D03*
X0080000Y0268434D03*
X0090000Y0268434D03*
X0100000Y0268434D03*
X0110000Y0268434D03*
X0120000Y0268434D03*
X0130000Y0268434D03*
D16*
X0130000Y0241434D02*
X0130000Y0235434D01*
X0120000Y0235434D02*
X0120000Y0241434D01*
X0110000Y0241434D02*
X0110000Y0235434D01*
X0100000Y0235434D02*
X0100000Y0241434D01*
X0100000Y0252934D02*
X0100000Y0258934D01*
X0090000Y0258934D02*
X0090000Y0252934D01*
X0080000Y0252934D02*
X0080000Y0258934D01*
X0070000Y0258934D02*
X0070000Y0252934D01*
X0058000Y0210934D02*
X0052000Y0210934D01*
X0052000Y0200934D02*
X0058000Y0200934D01*
X0058000Y0188434D02*
X0052000Y0188434D01*
X0052000Y0178434D02*
X0058000Y0178434D01*
X0058000Y0168434D02*
X0052000Y0168434D01*
D17*
X0085100Y0172434D02*
X0092900Y0172434D01*
X0133100Y0172434D02*
X0140900Y0172434D01*
X0141100Y0195934D02*
X0148900Y0195934D01*
X0140900Y0219434D02*
X0133100Y0219434D01*
X0092900Y0219434D02*
X0085100Y0219434D01*
D18*
X0103760Y0220264D03*
X0111240Y0220264D03*
X0107500Y0211603D03*
D19*
X0093740Y0200934D03*
X0086260Y0200934D03*
X0113760Y0255934D03*
X0121240Y0255934D03*
X0156260Y0258434D03*
X0163740Y0258434D03*
X0226260Y0258434D03*
X0233740Y0258434D03*
X0051240Y0255934D03*
X0043760Y0255934D03*
D20*
X0096600Y0126634D03*
X0103300Y0126634D03*
X0110000Y0126634D03*
X0116700Y0126634D03*
X0123400Y0126634D03*
D21*
X0110000Y0090334D03*
D22*
X0074311Y0126634D02*
X0074311Y0135234D01*
X0050689Y0135234D02*
X0050689Y0126634D01*
X0058200Y0112036D02*
X0066800Y0112036D01*
D23*
X0072500Y0228434D03*
X0072500Y0233434D03*
X0072500Y0238434D03*
X0072500Y0243434D03*
X0047500Y0243434D03*
X0047500Y0238434D03*
X0047500Y0233434D03*
X0047500Y0228434D03*
D24*
X0135807Y0258434D03*
X0149193Y0258434D03*
X0205807Y0258434D03*
X0219193Y0258434D03*
D25*
X0075472Y0153434D03*
X0059528Y0153434D03*
D26*
X0050883Y0080489D03*
X0050882Y0273402D03*
X0279197Y0273374D03*
M02*
