G75*
%MOIN*%
%OFA0B0*%
%FSLAX25Y25*%
%IPPOS*%
%LPD*%
%AMOC8*
5,1,8,0,0,1.08239X$1,22.5*
%
%ADD10R,0.04300X0.16000*%
%ADD11OC8,0.06000*%
%ADD12C,0.06000*%
%ADD13C,0.07800*%
%ADD14R,0.11417X0.21260*%
%ADD15R,0.04724X0.04724*%
%ADD16R,0.05118X0.05906*%
%ADD17R,0.05906X0.05118*%
%ADD18R,0.05512X0.07087*%
%ADD19C,0.17000*%
%ADD20C,0.01600*%
%ADD21C,0.02400*%
%ADD22C,0.04000*%
%ADD23C,0.03937*%
%ADD24C,0.05600*%
%ADD25C,0.17780*%
D10*
X0082500Y0076134D03*
X0082500Y0100734D03*
X0127500Y0100734D03*
X0127500Y0076134D03*
D11*
X0150000Y0238434D03*
X0150000Y0248434D03*
X0160000Y0248434D03*
X0170000Y0248434D03*
X0170000Y0238434D03*
X0160000Y0238434D03*
X0180000Y0238434D03*
X0180000Y0248434D03*
X0190000Y0248434D03*
X0190000Y0238434D03*
X0190000Y0268434D03*
X0180000Y0268434D03*
X0180000Y0278434D03*
X0190000Y0278434D03*
X0200000Y0278434D03*
X0210000Y0278434D03*
X0220000Y0278434D03*
X0230000Y0278434D03*
X0240000Y0278434D03*
X0250000Y0278434D03*
X0260000Y0278434D03*
X0260000Y0268434D03*
X0250000Y0268434D03*
X0240000Y0268434D03*
X0230000Y0268434D03*
X0220000Y0268434D03*
X0210000Y0268434D03*
X0200000Y0268434D03*
X0220000Y0248434D03*
X0230000Y0248434D03*
X0240000Y0248434D03*
X0240000Y0238434D03*
X0230000Y0238434D03*
X0220000Y0238434D03*
X0250000Y0238434D03*
X0250000Y0248434D03*
X0260000Y0248434D03*
X0260000Y0238434D03*
X0170000Y0268434D03*
X0160000Y0268434D03*
X0150000Y0268434D03*
X0140000Y0268434D03*
X0140000Y0278434D03*
X0150000Y0278434D03*
X0160000Y0278434D03*
X0170000Y0278434D03*
X0130000Y0278434D03*
X0120000Y0278434D03*
X0110000Y0278434D03*
X0100000Y0278434D03*
X0090000Y0278434D03*
X0080000Y0278434D03*
X0070000Y0278434D03*
X0070000Y0268434D03*
X0080000Y0268434D03*
X0090000Y0268434D03*
X0100000Y0268434D03*
X0110000Y0268434D03*
X0120000Y0268434D03*
X0130000Y0268434D03*
D12*
X0130000Y0241434D02*
X0130000Y0235434D01*
X0120000Y0235434D02*
X0120000Y0241434D01*
X0110000Y0241434D02*
X0110000Y0235434D01*
X0100000Y0235434D02*
X0100000Y0241434D01*
X0100000Y0252934D02*
X0100000Y0258934D01*
X0090000Y0258934D02*
X0090000Y0252934D01*
X0080000Y0252934D02*
X0080000Y0258934D01*
X0070000Y0258934D02*
X0070000Y0252934D01*
X0058000Y0217184D02*
X0052000Y0217184D01*
X0052000Y0207184D02*
X0058000Y0207184D01*
X0058000Y0193434D02*
X0052000Y0193434D01*
X0052000Y0183434D02*
X0058000Y0183434D01*
X0058000Y0173434D02*
X0052000Y0173434D01*
X0052000Y0163434D02*
X0058000Y0163434D01*
D13*
X0085100Y0172434D02*
X0092900Y0172434D01*
X0133100Y0172434D02*
X0140900Y0172434D01*
X0141100Y0195934D02*
X0148900Y0195934D01*
X0140900Y0219434D02*
X0133100Y0219434D01*
X0092900Y0219434D02*
X0085100Y0219434D01*
D14*
X0100512Y0133434D03*
X0139488Y0133434D03*
D15*
X0150000Y0080067D03*
X0150000Y0071800D03*
X0042500Y0099300D03*
X0042500Y0107567D03*
X0042500Y0229300D03*
X0042500Y0237567D03*
D16*
X0046260Y0245934D03*
X0053740Y0245934D03*
X0161260Y0258434D03*
X0168740Y0258434D03*
X0231260Y0258434D03*
X0238740Y0258434D03*
X0058740Y0095934D03*
X0051260Y0095934D03*
D17*
X0150000Y0097174D03*
X0150000Y0089693D03*
X0090000Y0237193D03*
X0090000Y0244674D03*
X0080000Y0244674D03*
X0080000Y0237193D03*
X0110000Y0249693D03*
X0110000Y0257174D03*
X0120000Y0257174D03*
X0120000Y0249693D03*
D18*
X0178307Y0258434D03*
X0191693Y0258434D03*
X0248307Y0258434D03*
X0261693Y0258434D03*
D19*
X0073937Y0132184D03*
X0062126Y0113680D03*
X0050315Y0132184D03*
D20*
X0039800Y0094937D02*
X0039800Y0068234D01*
X0078550Y0068234D01*
X0078550Y0075859D01*
X0082225Y0075859D01*
X0082225Y0076409D01*
X0082225Y0085934D01*
X0080113Y0085934D01*
X0079655Y0085811D01*
X0079245Y0085574D01*
X0078910Y0085239D01*
X0078673Y0084828D01*
X0078550Y0084371D01*
X0078550Y0076409D01*
X0082225Y0076409D01*
X0082775Y0076409D01*
X0082775Y0085934D01*
X0084887Y0085934D01*
X0085345Y0085811D01*
X0085755Y0085574D01*
X0086090Y0085239D01*
X0086327Y0084828D01*
X0086450Y0084371D01*
X0086450Y0076409D01*
X0082775Y0076409D01*
X0082775Y0075859D01*
X0086450Y0075859D01*
X0086450Y0068234D01*
X0123550Y0068234D01*
X0123550Y0075859D01*
X0127225Y0075859D01*
X0127225Y0076409D01*
X0127225Y0085934D01*
X0125113Y0085934D01*
X0124655Y0085811D01*
X0124245Y0085574D01*
X0123910Y0085239D01*
X0123673Y0084828D01*
X0123550Y0084371D01*
X0123550Y0076409D01*
X0127225Y0076409D01*
X0127775Y0076409D01*
X0127775Y0085934D01*
X0129887Y0085934D01*
X0130345Y0085811D01*
X0130755Y0085574D01*
X0131090Y0085239D01*
X0131327Y0084828D01*
X0131450Y0084371D01*
X0131450Y0076409D01*
X0127775Y0076409D01*
X0127775Y0075859D01*
X0131450Y0075859D01*
X0131450Y0068234D01*
X0146296Y0068234D01*
X0146197Y0068332D01*
X0145960Y0068743D01*
X0145838Y0069201D01*
X0145838Y0071419D01*
X0149619Y0071419D01*
X0149619Y0072181D01*
X0145838Y0072181D01*
X0145838Y0074399D01*
X0145960Y0074857D01*
X0146197Y0075267D01*
X0146533Y0075602D01*
X0146773Y0075741D01*
X0145638Y0076877D01*
X0145638Y0083258D01*
X0146809Y0084430D01*
X0147200Y0084430D01*
X0147200Y0085134D01*
X0146219Y0085134D01*
X0145047Y0086306D01*
X0145047Y0093081D01*
X0145400Y0093434D01*
X0145047Y0093786D01*
X0145047Y0100561D01*
X0146219Y0101733D01*
X0147200Y0101733D01*
X0147200Y0112274D01*
X0146340Y0113134D01*
X0142857Y0113134D01*
X0142266Y0112543D01*
X0131650Y0101927D01*
X0131650Y0091905D01*
X0130478Y0090734D01*
X0124522Y0090734D01*
X0123350Y0091905D01*
X0123350Y0109562D01*
X0124522Y0110734D01*
X0129143Y0110734D01*
X0136000Y0117590D01*
X0136000Y0120804D01*
X0132951Y0120804D01*
X0131780Y0121975D01*
X0131780Y0144892D01*
X0132951Y0146063D01*
X0146025Y0146063D01*
X0147197Y0144892D01*
X0147197Y0121975D01*
X0146025Y0120804D01*
X0144000Y0120804D01*
X0144000Y0118734D01*
X0148057Y0118734D01*
X0149086Y0118307D01*
X0149874Y0117520D01*
X0152374Y0115020D01*
X0152800Y0113991D01*
X0152800Y0101733D01*
X0153781Y0101733D01*
X0154953Y0100561D01*
X0154953Y0093786D01*
X0154600Y0093434D01*
X0154953Y0093081D01*
X0154953Y0086306D01*
X0153781Y0085134D01*
X0152800Y0085134D01*
X0152800Y0084430D01*
X0153191Y0084430D01*
X0154362Y0083258D01*
X0154362Y0076877D01*
X0153227Y0075741D01*
X0153467Y0075602D01*
X0153803Y0075267D01*
X0154040Y0074857D01*
X0154162Y0074399D01*
X0154162Y0072181D01*
X0150381Y0072181D01*
X0150381Y0071419D01*
X0154162Y0071419D01*
X0154162Y0069201D01*
X0154040Y0068743D01*
X0153803Y0068332D01*
X0153704Y0068234D01*
X0160200Y0068234D01*
X0160200Y0167517D01*
X0159641Y0166168D01*
X0148391Y0154918D01*
X0147266Y0153793D01*
X0145796Y0153184D01*
X0108398Y0153184D01*
X0109000Y0151729D01*
X0109000Y0150138D01*
X0108391Y0148668D01*
X0105787Y0146063D01*
X0107049Y0146063D01*
X0108220Y0144892D01*
X0108220Y0121975D01*
X0107049Y0120804D01*
X0095250Y0120804D01*
X0095250Y0118888D01*
X0094641Y0117418D01*
X0093516Y0116293D01*
X0086650Y0109427D01*
X0086650Y0091905D01*
X0085478Y0090734D01*
X0079522Y0090734D01*
X0078350Y0091905D01*
X0078350Y0097934D01*
X0064700Y0097934D01*
X0063299Y0096533D01*
X0063299Y0092152D01*
X0062128Y0090981D01*
X0055353Y0090981D01*
X0055000Y0091333D01*
X0054647Y0090981D01*
X0047872Y0090981D01*
X0046701Y0092152D01*
X0046701Y0095948D01*
X0045691Y0094937D01*
X0039800Y0094937D01*
X0039800Y0093805D02*
X0046701Y0093805D01*
X0046701Y0092207D02*
X0039800Y0092207D01*
X0039800Y0090608D02*
X0145047Y0090608D01*
X0145047Y0089010D02*
X0039800Y0089010D01*
X0039800Y0087411D02*
X0145047Y0087411D01*
X0145540Y0085813D02*
X0130338Y0085813D01*
X0131450Y0084214D02*
X0146594Y0084214D01*
X0145638Y0082616D02*
X0131450Y0082616D01*
X0131450Y0081017D02*
X0145638Y0081017D01*
X0145638Y0079419D02*
X0131450Y0079419D01*
X0131450Y0077820D02*
X0145638Y0077820D01*
X0146293Y0076222D02*
X0127775Y0076222D01*
X0127225Y0076222D02*
X0082775Y0076222D01*
X0082225Y0076222D02*
X0039800Y0076222D01*
X0039800Y0077820D02*
X0078550Y0077820D01*
X0078550Y0079419D02*
X0039800Y0079419D01*
X0039800Y0081017D02*
X0078550Y0081017D01*
X0078550Y0082616D02*
X0039800Y0082616D01*
X0039800Y0084214D02*
X0078550Y0084214D01*
X0079662Y0085813D02*
X0039800Y0085813D01*
X0046157Y0095404D02*
X0046701Y0095404D01*
X0047894Y0099300D02*
X0051260Y0095934D01*
X0047894Y0099300D02*
X0042500Y0099300D01*
X0046862Y0102100D02*
X0046862Y0102490D01*
X0045727Y0103626D01*
X0045967Y0103765D01*
X0046303Y0104100D01*
X0046540Y0104510D01*
X0046662Y0104968D01*
X0046662Y0107186D01*
X0042881Y0107186D01*
X0042881Y0107949D01*
X0042119Y0107949D01*
X0042119Y0111730D01*
X0039901Y0111730D01*
X0039800Y0111703D01*
X0039800Y0224937D01*
X0045691Y0224937D01*
X0046862Y0226109D01*
X0046862Y0226884D01*
X0055090Y0226884D01*
X0073531Y0208442D01*
X0073531Y0207644D01*
X0074136Y0206186D01*
X0075252Y0205069D01*
X0076711Y0204465D01*
X0078289Y0204465D01*
X0079748Y0205069D01*
X0080864Y0206186D01*
X0081468Y0207644D01*
X0081468Y0209223D01*
X0080864Y0210682D01*
X0079748Y0211798D01*
X0078289Y0212402D01*
X0077491Y0212402D01*
X0058624Y0231270D01*
X0057836Y0232057D01*
X0056807Y0232484D01*
X0046862Y0232484D01*
X0046862Y0232490D01*
X0045919Y0233434D01*
X0046862Y0234377D01*
X0046862Y0237970D01*
X0047846Y0238954D01*
X0048634Y0239741D01*
X0049060Y0240770D01*
X0049060Y0240981D01*
X0049647Y0240981D01*
X0050000Y0241333D01*
X0050353Y0240981D01*
X0057128Y0240981D01*
X0058299Y0242152D01*
X0058299Y0243134D01*
X0058500Y0243134D01*
X0058500Y0240138D01*
X0059109Y0238668D01*
X0071609Y0226168D01*
X0072734Y0225043D01*
X0074204Y0224434D01*
X0081756Y0224434D01*
X0080098Y0222776D01*
X0079200Y0220607D01*
X0079200Y0218260D01*
X0080098Y0216091D01*
X0081758Y0214432D01*
X0083926Y0213534D01*
X0085000Y0213534D01*
X0085000Y0207840D01*
X0074593Y0197434D01*
X0061071Y0197434D01*
X0060832Y0197672D01*
X0058995Y0198434D01*
X0051005Y0198434D01*
X0049168Y0197672D01*
X0047761Y0196266D01*
X0047000Y0194428D01*
X0047000Y0192439D01*
X0047761Y0190601D01*
X0049168Y0189195D01*
X0051005Y0188434D01*
X0058995Y0188434D01*
X0060832Y0189195D01*
X0061071Y0189434D01*
X0077046Y0189434D01*
X0078516Y0190043D01*
X0091266Y0202793D01*
X0092391Y0203918D01*
X0093000Y0205388D01*
X0093000Y0213534D01*
X0094074Y0213534D01*
X0096242Y0214432D01*
X0097902Y0216091D01*
X0098500Y0217536D01*
X0098500Y0191661D01*
X0098476Y0191598D01*
X0098500Y0190868D01*
X0098500Y0190138D01*
X0098526Y0190075D01*
X0098528Y0190008D01*
X0098829Y0189343D01*
X0099109Y0188668D01*
X0099157Y0188620D01*
X0099185Y0188558D01*
X0099718Y0188059D01*
X0100234Y0187543D01*
X0100297Y0187517D01*
X0119468Y0169559D01*
X0119984Y0169043D01*
X0120047Y0169017D01*
X0120096Y0168970D01*
X0120780Y0168713D01*
X0121454Y0168434D01*
X0121522Y0168434D01*
X0121585Y0168410D01*
X0122315Y0168434D01*
X0128756Y0168434D01*
X0129756Y0167434D01*
X0096244Y0167434D01*
X0097902Y0169091D01*
X0098800Y0171260D01*
X0098800Y0173607D01*
X0097902Y0175776D01*
X0096242Y0177435D01*
X0094074Y0178334D01*
X0083926Y0178334D01*
X0081758Y0177435D01*
X0081756Y0177434D01*
X0061071Y0177434D01*
X0060832Y0177672D01*
X0058995Y0178434D01*
X0051005Y0178434D01*
X0049168Y0177672D01*
X0047761Y0176266D01*
X0047000Y0174428D01*
X0047000Y0172439D01*
X0047761Y0170601D01*
X0049168Y0169195D01*
X0051005Y0168434D01*
X0058995Y0168434D01*
X0060832Y0169195D01*
X0061071Y0169434D01*
X0079957Y0169434D01*
X0080098Y0169091D01*
X0081756Y0167434D01*
X0061071Y0167434D01*
X0060832Y0167672D01*
X0058995Y0168434D01*
X0051005Y0168434D01*
X0049168Y0167672D01*
X0047761Y0166266D01*
X0047000Y0164428D01*
X0047000Y0162439D01*
X0047761Y0160601D01*
X0049168Y0159195D01*
X0051005Y0158434D01*
X0058995Y0158434D01*
X0060832Y0159195D01*
X0061071Y0159434D01*
X0094566Y0159434D01*
X0088984Y0153852D01*
X0087859Y0152727D01*
X0087250Y0151257D01*
X0087250Y0121340D01*
X0079109Y0113199D01*
X0078500Y0111729D01*
X0078500Y0109712D01*
X0078350Y0109562D01*
X0078350Y0103534D01*
X0063961Y0103534D01*
X0064982Y0103767D01*
X0066074Y0104149D01*
X0067116Y0104651D01*
X0068096Y0105266D01*
X0069000Y0105987D01*
X0069818Y0106805D01*
X0070539Y0107710D01*
X0071155Y0108689D01*
X0071657Y0109732D01*
X0072039Y0110824D01*
X0072296Y0111952D01*
X0072401Y0112880D01*
X0062926Y0112880D01*
X0062926Y0114480D01*
X0061326Y0114480D01*
X0061326Y0123955D01*
X0060398Y0123850D01*
X0059270Y0123593D01*
X0058178Y0123211D01*
X0057136Y0122709D01*
X0056156Y0122093D01*
X0055252Y0121372D01*
X0054434Y0120554D01*
X0053712Y0119649D01*
X0053097Y0118670D01*
X0052595Y0117627D01*
X0052213Y0116536D01*
X0051956Y0115408D01*
X0051851Y0114480D01*
X0061326Y0114480D01*
X0061326Y0112880D01*
X0051851Y0112880D01*
X0051956Y0111952D01*
X0052213Y0110824D01*
X0052595Y0109732D01*
X0053097Y0108689D01*
X0053712Y0107710D01*
X0054434Y0106805D01*
X0055252Y0105987D01*
X0056156Y0105266D01*
X0057136Y0104651D01*
X0058178Y0104149D01*
X0059270Y0103767D01*
X0060398Y0103509D01*
X0061326Y0103405D01*
X0061326Y0112880D01*
X0062926Y0112880D01*
X0062926Y0103510D01*
X0061954Y0103107D01*
X0059733Y0100886D01*
X0055353Y0100886D01*
X0055000Y0100534D01*
X0054647Y0100886D01*
X0050267Y0100886D01*
X0049480Y0101673D01*
X0048451Y0102100D01*
X0046862Y0102100D01*
X0045956Y0103396D02*
X0062652Y0103396D01*
X0062926Y0104995D02*
X0061326Y0104995D01*
X0061326Y0106593D02*
X0062926Y0106593D01*
X0062926Y0108192D02*
X0061326Y0108192D01*
X0061326Y0109790D02*
X0062926Y0109790D01*
X0062926Y0111389D02*
X0061326Y0111389D01*
X0061326Y0112987D02*
X0039800Y0112987D01*
X0039800Y0114586D02*
X0051863Y0114586D01*
X0052133Y0116184D02*
X0039800Y0116184D01*
X0039800Y0117783D02*
X0052670Y0117783D01*
X0053544Y0119381D02*
X0039800Y0119381D01*
X0039800Y0120980D02*
X0054860Y0120980D01*
X0054263Y0122653D02*
X0055305Y0123155D01*
X0056285Y0123770D01*
X0057189Y0124491D01*
X0058007Y0125309D01*
X0058728Y0126214D01*
X0059344Y0127193D01*
X0059846Y0128236D01*
X0060228Y0129328D01*
X0060485Y0130456D01*
X0060590Y0131384D01*
X0051115Y0131384D01*
X0051115Y0132984D01*
X0049515Y0132984D01*
X0049515Y0142459D01*
X0048587Y0142354D01*
X0047459Y0142097D01*
X0046367Y0141714D01*
X0045325Y0141213D01*
X0044345Y0140597D01*
X0043441Y0139876D01*
X0042623Y0139058D01*
X0041901Y0138153D01*
X0041286Y0137174D01*
X0040784Y0136131D01*
X0040402Y0135039D01*
X0040144Y0133912D01*
X0040040Y0132984D01*
X0049515Y0132984D01*
X0049515Y0131384D01*
X0040040Y0131384D01*
X0040144Y0130456D01*
X0040402Y0129328D01*
X0040784Y0128236D01*
X0041286Y0127193D01*
X0041901Y0126214D01*
X0042623Y0125309D01*
X0043441Y0124491D01*
X0044345Y0123770D01*
X0045325Y0123155D01*
X0046367Y0122653D01*
X0047459Y0122271D01*
X0048587Y0122013D01*
X0049515Y0121909D01*
X0049515Y0131383D01*
X0051115Y0131383D01*
X0051115Y0121909D01*
X0052043Y0122013D01*
X0053171Y0122271D01*
X0054263Y0122653D01*
X0054051Y0122578D02*
X0056929Y0122578D01*
X0056795Y0124177D02*
X0067094Y0124177D01*
X0067490Y0123781D02*
X0069884Y0122399D01*
X0072555Y0121684D01*
X0075319Y0121684D01*
X0077990Y0122399D01*
X0080384Y0123781D01*
X0082339Y0125736D01*
X0083721Y0128131D01*
X0084437Y0130801D01*
X0084437Y0133566D01*
X0083721Y0136236D01*
X0082339Y0138631D01*
X0080384Y0140586D01*
X0077990Y0141968D01*
X0075319Y0142684D01*
X0072555Y0142684D01*
X0069884Y0141968D01*
X0067490Y0140586D01*
X0065535Y0138631D01*
X0064153Y0136236D01*
X0063437Y0133566D01*
X0063437Y0130801D01*
X0064153Y0128131D01*
X0065535Y0125736D01*
X0067490Y0123781D01*
X0067116Y0122709D02*
X0066074Y0123211D01*
X0064982Y0123593D01*
X0063854Y0123850D01*
X0062926Y0123955D01*
X0062926Y0114480D01*
X0072401Y0114480D01*
X0072296Y0115408D01*
X0072039Y0116536D01*
X0071657Y0117627D01*
X0071155Y0118670D01*
X0070539Y0119649D01*
X0069818Y0120554D01*
X0069000Y0121372D01*
X0068096Y0122093D01*
X0067116Y0122709D01*
X0067323Y0122578D02*
X0069573Y0122578D01*
X0069392Y0120980D02*
X0086890Y0120980D01*
X0087250Y0122578D02*
X0078301Y0122578D01*
X0080780Y0124177D02*
X0087250Y0124177D01*
X0087250Y0125775D02*
X0082362Y0125775D01*
X0083285Y0127374D02*
X0087250Y0127374D01*
X0087250Y0128973D02*
X0083947Y0128973D01*
X0084375Y0130571D02*
X0087250Y0130571D01*
X0087250Y0132170D02*
X0084437Y0132170D01*
X0084383Y0133768D02*
X0087250Y0133768D01*
X0087250Y0135367D02*
X0083955Y0135367D01*
X0083301Y0136965D02*
X0087250Y0136965D01*
X0087250Y0138564D02*
X0082378Y0138564D01*
X0080808Y0140162D02*
X0087250Y0140162D01*
X0087250Y0141761D02*
X0078349Y0141761D01*
X0069525Y0141761D02*
X0054131Y0141761D01*
X0054263Y0141714D02*
X0053171Y0142097D01*
X0052043Y0142354D01*
X0051115Y0142459D01*
X0051115Y0132984D01*
X0060590Y0132984D01*
X0060485Y0133912D01*
X0060228Y0135039D01*
X0059846Y0136131D01*
X0059344Y0137174D01*
X0058728Y0138153D01*
X0058007Y0139058D01*
X0057189Y0139876D01*
X0056285Y0140597D01*
X0055305Y0141213D01*
X0054263Y0141714D01*
X0056830Y0140162D02*
X0067066Y0140162D01*
X0065496Y0138564D02*
X0058401Y0138564D01*
X0059444Y0136965D02*
X0064573Y0136965D01*
X0063920Y0135367D02*
X0060114Y0135367D01*
X0060502Y0133768D02*
X0063491Y0133768D01*
X0063437Y0132170D02*
X0051115Y0132170D01*
X0051115Y0133768D02*
X0049515Y0133768D01*
X0049515Y0132170D02*
X0039800Y0132170D01*
X0039800Y0133768D02*
X0040128Y0133768D01*
X0039800Y0135367D02*
X0040516Y0135367D01*
X0041185Y0136965D02*
X0039800Y0136965D01*
X0039800Y0138564D02*
X0042229Y0138564D01*
X0043800Y0140162D02*
X0039800Y0140162D01*
X0039800Y0141761D02*
X0046499Y0141761D01*
X0049515Y0141761D02*
X0051115Y0141761D01*
X0051115Y0140162D02*
X0049515Y0140162D01*
X0049515Y0138564D02*
X0051115Y0138564D01*
X0051115Y0136965D02*
X0049515Y0136965D01*
X0049515Y0135367D02*
X0051115Y0135367D01*
X0051115Y0130571D02*
X0049515Y0130571D01*
X0049515Y0128973D02*
X0051115Y0128973D01*
X0051115Y0127374D02*
X0049515Y0127374D01*
X0049515Y0125775D02*
X0051115Y0125775D01*
X0051115Y0124177D02*
X0049515Y0124177D01*
X0049515Y0122578D02*
X0051115Y0122578D01*
X0046579Y0122578D02*
X0039800Y0122578D01*
X0039800Y0124177D02*
X0043835Y0124177D01*
X0042251Y0125775D02*
X0039800Y0125775D01*
X0039800Y0127374D02*
X0041199Y0127374D01*
X0040526Y0128973D02*
X0039800Y0128973D01*
X0039800Y0130571D02*
X0040131Y0130571D01*
X0039800Y0143359D02*
X0087250Y0143359D01*
X0087250Y0144958D02*
X0039800Y0144958D01*
X0039800Y0146556D02*
X0087250Y0146556D01*
X0087250Y0148155D02*
X0039800Y0148155D01*
X0039800Y0149753D02*
X0087250Y0149753D01*
X0087289Y0151352D02*
X0039800Y0151352D01*
X0039800Y0152950D02*
X0088082Y0152950D01*
X0089681Y0154549D02*
X0039800Y0154549D01*
X0039800Y0156147D02*
X0091279Y0156147D01*
X0092878Y0157746D02*
X0039800Y0157746D01*
X0039800Y0159344D02*
X0049018Y0159344D01*
X0047620Y0160943D02*
X0039800Y0160943D01*
X0039800Y0162541D02*
X0047000Y0162541D01*
X0047000Y0164140D02*
X0039800Y0164140D01*
X0039800Y0165738D02*
X0047543Y0165738D01*
X0048832Y0167337D02*
X0039800Y0167337D01*
X0039800Y0168935D02*
X0049794Y0168935D01*
X0047829Y0170534D02*
X0039800Y0170534D01*
X0039800Y0172132D02*
X0047127Y0172132D01*
X0047000Y0173731D02*
X0039800Y0173731D01*
X0039800Y0175329D02*
X0047373Y0175329D01*
X0048423Y0176928D02*
X0039800Y0176928D01*
X0039800Y0178526D02*
X0109894Y0178526D01*
X0108188Y0180125D02*
X0061480Y0180125D01*
X0061661Y0180307D02*
X0062105Y0180918D01*
X0062448Y0181591D01*
X0062682Y0182310D01*
X0062800Y0183056D01*
X0062800Y0183234D01*
X0055200Y0183234D01*
X0055200Y0183634D01*
X0054800Y0183634D01*
X0054800Y0188234D01*
X0051622Y0188234D01*
X0050876Y0188115D01*
X0050157Y0187882D01*
X0049484Y0187539D01*
X0048873Y0187095D01*
X0048339Y0186561D01*
X0047895Y0185949D01*
X0047552Y0185276D01*
X0047318Y0184558D01*
X0047200Y0183811D01*
X0047200Y0183634D01*
X0054800Y0183634D01*
X0054800Y0183234D01*
X0047200Y0183234D01*
X0047200Y0183056D01*
X0047318Y0182310D01*
X0047552Y0181591D01*
X0047895Y0180918D01*
X0048339Y0180307D01*
X0048873Y0179772D01*
X0049484Y0179328D01*
X0050157Y0178985D01*
X0050876Y0178752D01*
X0051622Y0178634D01*
X0054800Y0178634D01*
X0054800Y0183233D01*
X0055200Y0183233D01*
X0055200Y0178634D01*
X0058378Y0178634D01*
X0059124Y0178752D01*
X0059843Y0178985D01*
X0060516Y0179328D01*
X0061127Y0179772D01*
X0061661Y0180307D01*
X0062491Y0181723D02*
X0106481Y0181723D01*
X0104775Y0183322D02*
X0055200Y0183322D01*
X0055200Y0183634D02*
X0062800Y0183634D01*
X0062800Y0183811D01*
X0062682Y0184558D01*
X0062448Y0185276D01*
X0062105Y0185949D01*
X0061661Y0186561D01*
X0061127Y0187095D01*
X0060516Y0187539D01*
X0059843Y0187882D01*
X0059124Y0188115D01*
X0058378Y0188234D01*
X0055200Y0188234D01*
X0055200Y0183634D01*
X0054800Y0183322D02*
X0039800Y0183322D01*
X0039800Y0184920D02*
X0047436Y0184920D01*
X0048309Y0186519D02*
X0039800Y0186519D01*
X0039800Y0188117D02*
X0050889Y0188117D01*
X0048647Y0189716D02*
X0039800Y0189716D01*
X0039800Y0191314D02*
X0047466Y0191314D01*
X0047000Y0192913D02*
X0039800Y0192913D01*
X0039800Y0194511D02*
X0047035Y0194511D01*
X0047697Y0196110D02*
X0039800Y0196110D01*
X0039800Y0197709D02*
X0049255Y0197709D01*
X0051005Y0202184D02*
X0058995Y0202184D01*
X0060832Y0202945D01*
X0062239Y0204351D01*
X0063000Y0206189D01*
X0063000Y0208178D01*
X0062239Y0210016D01*
X0060832Y0211422D01*
X0058995Y0212184D01*
X0051005Y0212184D01*
X0049168Y0211422D01*
X0047761Y0210016D01*
X0047000Y0208178D01*
X0047000Y0206189D01*
X0047761Y0204351D01*
X0049168Y0202945D01*
X0051005Y0202184D01*
X0050232Y0202504D02*
X0039800Y0202504D01*
X0039800Y0200906D02*
X0078065Y0200906D01*
X0079664Y0202504D02*
X0059768Y0202504D01*
X0061990Y0204103D02*
X0081262Y0204103D01*
X0080380Y0205701D02*
X0082861Y0205701D01*
X0081326Y0207300D02*
X0084459Y0207300D01*
X0085000Y0208898D02*
X0081468Y0208898D01*
X0080941Y0210497D02*
X0085000Y0210497D01*
X0085000Y0212095D02*
X0079030Y0212095D01*
X0076200Y0213694D02*
X0083540Y0213694D01*
X0080898Y0215292D02*
X0074601Y0215292D01*
X0073003Y0216891D02*
X0079767Y0216891D01*
X0079200Y0218489D02*
X0071404Y0218489D01*
X0069806Y0220088D02*
X0079200Y0220088D01*
X0079647Y0221686D02*
X0068207Y0221686D01*
X0066609Y0223285D02*
X0080607Y0223285D01*
X0073119Y0224883D02*
X0065010Y0224883D01*
X0063412Y0226482D02*
X0071295Y0226482D01*
X0069696Y0228080D02*
X0061813Y0228080D01*
X0060215Y0229679D02*
X0068098Y0229679D01*
X0066499Y0231277D02*
X0058616Y0231277D01*
X0056250Y0229684D02*
X0040866Y0229684D01*
X0042500Y0229300D01*
X0039800Y0224883D02*
X0057091Y0224883D01*
X0058689Y0223285D02*
X0039800Y0223285D01*
X0039800Y0221686D02*
X0050325Y0221686D01*
X0050157Y0221632D02*
X0049484Y0221289D01*
X0048873Y0220845D01*
X0048339Y0220311D01*
X0047895Y0219699D01*
X0047552Y0219026D01*
X0047318Y0218308D01*
X0047200Y0217561D01*
X0047200Y0217384D01*
X0054800Y0217384D01*
X0054800Y0221984D01*
X0051622Y0221984D01*
X0050876Y0221865D01*
X0050157Y0221632D01*
X0048177Y0220088D02*
X0039800Y0220088D01*
X0039800Y0218489D02*
X0047377Y0218489D01*
X0047200Y0216984D02*
X0047200Y0216806D01*
X0047318Y0216060D01*
X0047552Y0215341D01*
X0047895Y0214668D01*
X0048339Y0214057D01*
X0048873Y0213522D01*
X0049484Y0213078D01*
X0050157Y0212735D01*
X0050876Y0212502D01*
X0051622Y0212384D01*
X0054800Y0212384D01*
X0054800Y0216983D01*
X0055200Y0216983D01*
X0055200Y0212384D01*
X0058378Y0212384D01*
X0059124Y0212502D01*
X0059843Y0212735D01*
X0060516Y0213078D01*
X0061127Y0213522D01*
X0061661Y0214057D01*
X0062105Y0214668D01*
X0062448Y0215341D01*
X0062682Y0216060D01*
X0062800Y0216806D01*
X0062800Y0216984D01*
X0055200Y0216984D01*
X0055200Y0217384D01*
X0054800Y0217384D01*
X0054800Y0216984D01*
X0047200Y0216984D01*
X0047200Y0216891D02*
X0039800Y0216891D01*
X0039800Y0215292D02*
X0047577Y0215292D01*
X0048702Y0213694D02*
X0039800Y0213694D01*
X0039800Y0212095D02*
X0050792Y0212095D01*
X0048242Y0210497D02*
X0039800Y0210497D01*
X0039800Y0208898D02*
X0047298Y0208898D01*
X0047000Y0207300D02*
X0039800Y0207300D01*
X0039800Y0205701D02*
X0047202Y0205701D01*
X0048010Y0204103D02*
X0039800Y0204103D01*
X0039800Y0199307D02*
X0076467Y0199307D01*
X0074868Y0197709D02*
X0060745Y0197709D01*
X0062798Y0205701D02*
X0074620Y0205701D01*
X0073674Y0207300D02*
X0063000Y0207300D01*
X0062702Y0208898D02*
X0073076Y0208898D01*
X0071477Y0210497D02*
X0061758Y0210497D01*
X0059208Y0212095D02*
X0069879Y0212095D01*
X0068280Y0213694D02*
X0061298Y0213694D01*
X0062423Y0215292D02*
X0066682Y0215292D01*
X0065083Y0216891D02*
X0062800Y0216891D01*
X0062800Y0217384D02*
X0062800Y0217561D01*
X0062682Y0218308D01*
X0062448Y0219026D01*
X0062105Y0219699D01*
X0061661Y0220311D01*
X0061127Y0220845D01*
X0060516Y0221289D01*
X0059843Y0221632D01*
X0059124Y0221865D01*
X0058378Y0221984D01*
X0055200Y0221984D01*
X0055200Y0217384D01*
X0062800Y0217384D01*
X0062623Y0218489D02*
X0063485Y0218489D01*
X0061886Y0220088D02*
X0061823Y0220088D01*
X0060288Y0221686D02*
X0059675Y0221686D01*
X0055200Y0221686D02*
X0054800Y0221686D01*
X0054800Y0220088D02*
X0055200Y0220088D01*
X0055200Y0218489D02*
X0054800Y0218489D01*
X0054800Y0216891D02*
X0055200Y0216891D01*
X0055200Y0215292D02*
X0054800Y0215292D01*
X0054800Y0213694D02*
X0055200Y0213694D01*
X0055492Y0226482D02*
X0046862Y0226482D01*
X0046477Y0232876D02*
X0064901Y0232876D01*
X0063302Y0234474D02*
X0046862Y0234474D01*
X0046862Y0236073D02*
X0061704Y0236073D01*
X0060105Y0237671D02*
X0046862Y0237671D01*
X0048162Y0239270D02*
X0058860Y0239270D01*
X0058500Y0240868D02*
X0049060Y0240868D01*
X0046260Y0241327D02*
X0046260Y0245934D01*
X0041701Y0249715D02*
X0042872Y0250886D01*
X0049647Y0250886D01*
X0050000Y0250534D01*
X0050353Y0250886D01*
X0057128Y0250886D01*
X0058299Y0249715D01*
X0058299Y0248734D01*
X0058500Y0248734D01*
X0058500Y0261729D01*
X0059109Y0263199D01*
X0059300Y0263390D01*
X0059300Y0269070D01*
X0059787Y0270246D01*
X0065452Y0275911D01*
X0065000Y0276362D01*
X0065000Y0280505D01*
X0067929Y0283434D01*
X0072071Y0283434D01*
X0073871Y0281634D01*
X0076129Y0281634D01*
X0077929Y0283434D01*
X0082071Y0283434D01*
X0085000Y0280505D01*
X0085000Y0276362D01*
X0082071Y0273434D01*
X0077929Y0273434D01*
X0076129Y0275234D01*
X0073871Y0275234D01*
X0072071Y0273434D01*
X0072025Y0273434D01*
X0072025Y0273434D01*
X0072071Y0273434D01*
X0075000Y0270505D01*
X0075000Y0266362D01*
X0072800Y0264162D01*
X0072800Y0263186D01*
X0072832Y0263172D01*
X0074239Y0261766D01*
X0075000Y0259928D01*
X0075000Y0251939D01*
X0074239Y0250101D01*
X0072832Y0248695D01*
X0072800Y0248681D01*
X0072800Y0244593D01*
X0075047Y0242346D01*
X0075047Y0248061D01*
X0076219Y0249233D01*
X0076630Y0249233D01*
X0075761Y0250101D01*
X0075000Y0251939D01*
X0075000Y0259928D01*
X0075761Y0261766D01*
X0077168Y0263172D01*
X0077200Y0263186D01*
X0077200Y0264163D01*
X0075000Y0266362D01*
X0075000Y0270505D01*
X0077929Y0273434D01*
X0082071Y0273434D01*
X0085000Y0270505D01*
X0085000Y0266362D01*
X0082800Y0264163D01*
X0082800Y0263186D01*
X0082832Y0263172D01*
X0084239Y0261766D01*
X0085000Y0259928D01*
X0085000Y0251939D01*
X0084239Y0250101D01*
X0083370Y0249233D01*
X0083781Y0249233D01*
X0084953Y0248061D01*
X0084953Y0241286D01*
X0084600Y0240934D01*
X0084953Y0240581D01*
X0084953Y0239993D01*
X0085047Y0239993D01*
X0085047Y0240581D01*
X0085400Y0240934D01*
X0085047Y0241286D01*
X0085047Y0248061D01*
X0086219Y0249233D01*
X0086630Y0249233D01*
X0085761Y0250101D01*
X0085000Y0251939D01*
X0085000Y0259928D01*
X0085761Y0261766D01*
X0087168Y0263172D01*
X0087200Y0263186D01*
X0087200Y0264163D01*
X0085000Y0266362D01*
X0085000Y0270505D01*
X0087929Y0273434D01*
X0092071Y0273434D01*
X0095000Y0270505D01*
X0095000Y0266362D01*
X0092800Y0264163D01*
X0092800Y0263186D01*
X0092832Y0263172D01*
X0094239Y0261766D01*
X0095000Y0259928D01*
X0095000Y0251939D01*
X0094239Y0250101D01*
X0093370Y0249233D01*
X0093781Y0249233D01*
X0094953Y0248061D01*
X0094953Y0241286D01*
X0094600Y0240934D01*
X0094953Y0240581D01*
X0094953Y0239993D01*
X0095000Y0239993D01*
X0095000Y0242428D01*
X0095761Y0244266D01*
X0097168Y0245672D01*
X0099005Y0246434D01*
X0100995Y0246434D01*
X0102832Y0245672D01*
X0104239Y0244266D01*
X0105000Y0242428D01*
X0105000Y0234893D01*
X0105000Y0234893D01*
X0105000Y0242428D01*
X0105761Y0244266D01*
X0106630Y0245134D01*
X0106219Y0245134D01*
X0105047Y0246306D01*
X0105047Y0253081D01*
X0105400Y0253434D01*
X0105047Y0253786D01*
X0105047Y0259427D01*
X0104732Y0259742D01*
X0104800Y0259311D01*
X0104800Y0256134D01*
X0100200Y0256134D01*
X0100200Y0255734D01*
X0104800Y0255734D01*
X0104800Y0252556D01*
X0104682Y0251810D01*
X0104448Y0251091D01*
X0104105Y0250418D01*
X0103661Y0249807D01*
X0103127Y0249272D01*
X0102516Y0248828D01*
X0101843Y0248485D01*
X0101124Y0248252D01*
X0100378Y0248134D01*
X0100200Y0248134D01*
X0100200Y0255733D01*
X0099800Y0255733D01*
X0099800Y0248134D01*
X0099622Y0248134D01*
X0098876Y0248252D01*
X0098157Y0248485D01*
X0097484Y0248828D01*
X0096873Y0249272D01*
X0096339Y0249807D01*
X0095895Y0250418D01*
X0095552Y0251091D01*
X0095318Y0251810D01*
X0095200Y0252556D01*
X0095200Y0255734D01*
X0099800Y0255734D01*
X0099800Y0256134D01*
X0095200Y0256134D01*
X0095200Y0259311D01*
X0095318Y0260058D01*
X0095552Y0260776D01*
X0095895Y0261449D01*
X0096339Y0262061D01*
X0096873Y0262595D01*
X0097484Y0263039D01*
X0098157Y0263382D01*
X0098316Y0263434D01*
X0097929Y0263434D01*
X0095000Y0266362D01*
X0095000Y0270505D01*
X0097929Y0273434D01*
X0101040Y0273434D01*
X0101040Y0273434D01*
X0097929Y0273434D01*
X0095000Y0276362D01*
X0095000Y0280505D01*
X0097929Y0283434D01*
X0102071Y0283434D01*
X0105000Y0280505D01*
X0105000Y0277393D01*
X0105000Y0277393D01*
X0105000Y0280505D01*
X0107929Y0283434D01*
X0112071Y0283434D01*
X0115000Y0280505D01*
X0115000Y0277393D01*
X0115000Y0277393D01*
X0115000Y0280505D01*
X0117929Y0283434D01*
X0122071Y0283434D01*
X0125000Y0280505D01*
X0125000Y0276362D01*
X0122071Y0273434D01*
X0117929Y0273434D01*
X0117800Y0273563D01*
X0117800Y0273305D01*
X0117929Y0273434D01*
X0122071Y0273434D01*
X0125000Y0270505D01*
X0125000Y0266362D01*
X0127929Y0263434D01*
X0132071Y0263434D01*
X0135000Y0266362D01*
X0135000Y0270505D01*
X0132071Y0273434D01*
X0127929Y0273434D01*
X0125000Y0270505D01*
X0125000Y0266362D01*
X0122071Y0263434D01*
X0118960Y0263434D01*
X0120661Y0261733D01*
X0123781Y0261733D01*
X0124953Y0260561D01*
X0124953Y0253786D01*
X0124600Y0253434D01*
X0124953Y0253081D01*
X0124953Y0246306D01*
X0123781Y0245134D01*
X0123370Y0245134D01*
X0124239Y0244266D01*
X0125000Y0242428D01*
X0125000Y0234439D01*
X0124239Y0232601D01*
X0122871Y0231234D01*
X0127670Y0231234D01*
X0127484Y0231328D01*
X0126873Y0231772D01*
X0126339Y0232307D01*
X0125895Y0232918D01*
X0125552Y0233591D01*
X0125318Y0234310D01*
X0125200Y0235056D01*
X0125200Y0238234D01*
X0129800Y0238234D01*
X0129800Y0238634D01*
X0129800Y0246234D01*
X0129622Y0246234D01*
X0128876Y0246115D01*
X0128157Y0245882D01*
X0127484Y0245539D01*
X0126873Y0245095D01*
X0126339Y0244561D01*
X0125895Y0243949D01*
X0125552Y0243276D01*
X0125318Y0242558D01*
X0125200Y0241811D01*
X0125200Y0238634D01*
X0129800Y0238634D01*
X0130200Y0238634D01*
X0130200Y0246234D01*
X0130378Y0246234D01*
X0131124Y0246115D01*
X0131843Y0245882D01*
X0132516Y0245539D01*
X0133127Y0245095D01*
X0133661Y0244561D01*
X0134105Y0243949D01*
X0134448Y0243276D01*
X0134682Y0242558D01*
X0134800Y0241811D01*
X0134800Y0238634D01*
X0130200Y0238634D01*
X0130200Y0238234D01*
X0134800Y0238234D01*
X0134800Y0235056D01*
X0134682Y0234310D01*
X0134448Y0233591D01*
X0134105Y0232918D01*
X0133661Y0232307D01*
X0133127Y0231772D01*
X0132516Y0231328D01*
X0132330Y0231234D01*
X0133840Y0231234D01*
X0137200Y0234593D01*
X0137200Y0258991D01*
X0137626Y0260020D01*
X0141040Y0263434D01*
X0137929Y0263434D01*
X0135000Y0266362D01*
X0135000Y0270505D01*
X0137929Y0273434D01*
X0142071Y0273434D01*
X0145000Y0276362D01*
X0145000Y0280505D01*
X0142071Y0283434D01*
X0137929Y0283434D01*
X0135000Y0280505D01*
X0135000Y0276362D01*
X0137929Y0273434D01*
X0142071Y0273434D01*
X0145000Y0270505D01*
X0145000Y0267393D01*
X0145000Y0267393D01*
X0145000Y0270505D01*
X0147929Y0273434D01*
X0151040Y0273434D01*
X0151040Y0273434D01*
X0147929Y0273434D01*
X0145000Y0276362D01*
X0145000Y0280505D01*
X0147929Y0283434D01*
X0152071Y0283434D01*
X0155000Y0280505D01*
X0155000Y0277393D01*
X0155200Y0277193D01*
X0155200Y0278234D01*
X0159800Y0278234D01*
X0159800Y0278634D01*
X0159800Y0283234D01*
X0158012Y0283234D01*
X0155200Y0280422D01*
X0155200Y0278634D01*
X0159800Y0278634D01*
X0160200Y0278634D01*
X0160200Y0283234D01*
X0161988Y0283234D01*
X0164800Y0280422D01*
X0164800Y0278634D01*
X0160200Y0278634D01*
X0160200Y0278234D01*
X0164800Y0278234D01*
X0164800Y0276445D01*
X0161988Y0273634D01*
X0160200Y0273634D01*
X0160200Y0278233D01*
X0159800Y0278233D01*
X0159800Y0273634D01*
X0158012Y0273634D01*
X0157800Y0273845D01*
X0157800Y0273305D01*
X0157929Y0273434D01*
X0162071Y0273434D01*
X0165000Y0270505D01*
X0165000Y0266362D01*
X0162071Y0263434D01*
X0161460Y0263434D01*
X0161413Y0263386D01*
X0164647Y0263386D01*
X0165000Y0263034D01*
X0165353Y0263386D01*
X0167200Y0263386D01*
X0167200Y0264162D01*
X0165000Y0266362D01*
X0165000Y0270505D01*
X0167929Y0273434D01*
X0172071Y0273434D01*
X0175000Y0276362D01*
X0175000Y0280505D01*
X0172071Y0283434D01*
X0167929Y0283434D01*
X0165000Y0280505D01*
X0165000Y0276362D01*
X0167929Y0273434D01*
X0172071Y0273434D01*
X0175000Y0270505D01*
X0175000Y0266362D01*
X0172800Y0264162D01*
X0172800Y0262714D01*
X0173299Y0262215D01*
X0173299Y0261234D01*
X0173551Y0261234D01*
X0173551Y0262805D01*
X0174723Y0263977D01*
X0177386Y0263977D01*
X0175000Y0266362D01*
X0175000Y0270505D01*
X0177929Y0273434D01*
X0181040Y0273434D01*
X0181040Y0273434D01*
X0177929Y0273434D01*
X0175000Y0276362D01*
X0175000Y0280505D01*
X0177929Y0283434D01*
X0182071Y0283434D01*
X0185000Y0280505D01*
X0185000Y0277393D01*
X0185000Y0277393D01*
X0185000Y0280505D01*
X0187929Y0283434D01*
X0192071Y0283434D01*
X0195000Y0280505D01*
X0195000Y0276362D01*
X0197929Y0273434D01*
X0202071Y0273434D01*
X0205000Y0276362D01*
X0205000Y0280505D01*
X0202071Y0283434D01*
X0197929Y0283434D01*
X0195000Y0280505D01*
X0195000Y0276362D01*
X0192071Y0273434D01*
X0187929Y0273434D01*
X0187800Y0273563D01*
X0187800Y0273022D01*
X0188012Y0273234D01*
X0189800Y0273234D01*
X0189800Y0268634D01*
X0190200Y0268634D01*
X0190200Y0273234D01*
X0191988Y0273234D01*
X0194800Y0270422D01*
X0194800Y0268634D01*
X0190200Y0268634D01*
X0190200Y0268234D01*
X0194800Y0268234D01*
X0194800Y0266445D01*
X0191988Y0263634D01*
X0191115Y0263634D01*
X0191115Y0259012D01*
X0192271Y0259012D01*
X0192271Y0263777D01*
X0194686Y0263777D01*
X0195144Y0263654D01*
X0195554Y0263417D01*
X0195889Y0263082D01*
X0196126Y0262672D01*
X0196249Y0262214D01*
X0196249Y0259012D01*
X0192271Y0259012D01*
X0192271Y0257856D01*
X0196249Y0257856D01*
X0196249Y0254653D01*
X0196126Y0254195D01*
X0195889Y0253785D01*
X0195554Y0253450D01*
X0195144Y0253213D01*
X0194686Y0253090D01*
X0192271Y0253090D01*
X0192271Y0257856D01*
X0191115Y0257856D01*
X0191115Y0253234D01*
X0191988Y0253234D01*
X0194800Y0250422D01*
X0194800Y0248634D01*
X0190200Y0248634D01*
X0190200Y0248234D01*
X0194800Y0248234D01*
X0194800Y0246445D01*
X0191988Y0243634D01*
X0190200Y0243634D01*
X0190200Y0248233D01*
X0189800Y0248233D01*
X0189800Y0243634D01*
X0188012Y0243634D01*
X0187800Y0243845D01*
X0187800Y0243022D01*
X0188012Y0243234D01*
X0189800Y0243234D01*
X0189800Y0238634D01*
X0190200Y0238634D01*
X0190200Y0243234D01*
X0191988Y0243234D01*
X0194800Y0240422D01*
X0194800Y0238634D01*
X0190200Y0238634D01*
X0190200Y0238234D01*
X0194800Y0238234D01*
X0194800Y0236445D01*
X0193288Y0234934D01*
X0213343Y0234934D01*
X0215000Y0236590D01*
X0215000Y0240505D01*
X0217929Y0243434D01*
X0222071Y0243434D01*
X0222200Y0243563D01*
X0222200Y0243305D01*
X0222071Y0243434D01*
X0217929Y0243434D01*
X0215000Y0246362D01*
X0215000Y0249474D01*
X0212626Y0251847D01*
X0212200Y0252877D01*
X0212200Y0263563D01*
X0212071Y0263434D01*
X0207929Y0263434D01*
X0205000Y0266362D01*
X0202071Y0263434D01*
X0197929Y0263434D01*
X0195000Y0266362D01*
X0195000Y0270505D01*
X0197929Y0273434D01*
X0202071Y0273434D01*
X0205000Y0270505D01*
X0205000Y0266362D01*
X0205000Y0270505D01*
X0207929Y0273434D01*
X0212071Y0273434D01*
X0212200Y0273305D01*
X0212200Y0273845D01*
X0211988Y0273634D01*
X0210200Y0273634D01*
X0210200Y0278233D01*
X0209800Y0278233D01*
X0209800Y0273634D01*
X0208012Y0273634D01*
X0205200Y0276445D01*
X0205200Y0278234D01*
X0209800Y0278234D01*
X0209800Y0278634D01*
X0209800Y0283234D01*
X0208012Y0283234D01*
X0205200Y0280422D01*
X0205200Y0278634D01*
X0209800Y0278634D01*
X0210200Y0278634D01*
X0210200Y0283234D01*
X0211988Y0283234D01*
X0214800Y0280422D01*
X0214800Y0278634D01*
X0210200Y0278634D01*
X0210200Y0278234D01*
X0214800Y0278234D01*
X0214800Y0277193D01*
X0215000Y0277393D01*
X0215000Y0280505D01*
X0217929Y0283434D01*
X0222071Y0283434D01*
X0225000Y0280505D01*
X0225000Y0276362D01*
X0222071Y0273434D01*
X0218960Y0273434D01*
X0218960Y0273434D01*
X0222071Y0273434D01*
X0225000Y0270505D01*
X0225000Y0267393D01*
X0225000Y0267393D01*
X0225000Y0270505D01*
X0227929Y0273434D01*
X0232071Y0273434D01*
X0235000Y0270505D01*
X0235000Y0266362D01*
X0232071Y0263434D01*
X0228960Y0263434D01*
X0228913Y0263386D01*
X0234647Y0263386D01*
X0235000Y0263034D01*
X0235353Y0263386D01*
X0237200Y0263386D01*
X0237200Y0264162D01*
X0235000Y0266362D01*
X0235000Y0270505D01*
X0237929Y0273434D01*
X0242071Y0273434D01*
X0245000Y0276362D01*
X0245000Y0280505D01*
X0242071Y0283434D01*
X0237929Y0283434D01*
X0235000Y0280505D01*
X0235000Y0276362D01*
X0237929Y0273434D01*
X0242071Y0273434D01*
X0245000Y0270505D01*
X0245000Y0266362D01*
X0242800Y0264162D01*
X0242800Y0262714D01*
X0243299Y0262215D01*
X0243299Y0261234D01*
X0243551Y0261234D01*
X0243551Y0262805D01*
X0244723Y0263977D01*
X0247386Y0263977D01*
X0245000Y0266362D01*
X0245000Y0270505D01*
X0247929Y0273434D01*
X0251040Y0273434D01*
X0251040Y0273434D01*
X0247929Y0273434D01*
X0245000Y0276362D01*
X0245000Y0280505D01*
X0247929Y0283434D01*
X0252071Y0283434D01*
X0255000Y0280505D01*
X0255000Y0277393D01*
X0255000Y0277393D01*
X0255000Y0280505D01*
X0257929Y0283434D01*
X0262071Y0283434D01*
X0265000Y0280505D01*
X0265000Y0276362D01*
X0262071Y0273434D01*
X0257929Y0273434D01*
X0257800Y0273563D01*
X0257800Y0273022D01*
X0258012Y0273234D01*
X0259800Y0273234D01*
X0259800Y0268634D01*
X0260200Y0268634D01*
X0260200Y0273234D01*
X0261988Y0273234D01*
X0264800Y0270422D01*
X0264800Y0268634D01*
X0260200Y0268634D01*
X0260200Y0268234D01*
X0264800Y0268234D01*
X0264800Y0266445D01*
X0261988Y0263634D01*
X0261115Y0263634D01*
X0261115Y0259012D01*
X0262271Y0259012D01*
X0262271Y0263777D01*
X0264686Y0263777D01*
X0265144Y0263654D01*
X0265554Y0263417D01*
X0265889Y0263082D01*
X0266126Y0262672D01*
X0266249Y0262214D01*
X0266249Y0259012D01*
X0262271Y0259012D01*
X0262271Y0257856D01*
X0266249Y0257856D01*
X0266249Y0254653D01*
X0266126Y0254195D01*
X0265889Y0253785D01*
X0265554Y0253450D01*
X0265144Y0253213D01*
X0264686Y0253090D01*
X0262271Y0253090D01*
X0262271Y0257856D01*
X0261115Y0257856D01*
X0261115Y0253234D01*
X0261988Y0253234D01*
X0264800Y0250422D01*
X0264800Y0248634D01*
X0260200Y0248634D01*
X0260200Y0248234D01*
X0264800Y0248234D01*
X0264800Y0246445D01*
X0261988Y0243634D01*
X0260200Y0243634D01*
X0260200Y0248233D01*
X0259800Y0248233D01*
X0259800Y0243634D01*
X0258012Y0243634D01*
X0257800Y0243845D01*
X0257800Y0243022D01*
X0258012Y0243234D01*
X0259800Y0243234D01*
X0259800Y0238634D01*
X0260200Y0238634D01*
X0260200Y0243234D01*
X0261988Y0243234D01*
X0264800Y0240422D01*
X0264800Y0238634D01*
X0260200Y0238634D01*
X0260200Y0238234D01*
X0264800Y0238234D01*
X0264800Y0236445D01*
X0261988Y0233634D01*
X0260200Y0233634D01*
X0260200Y0238233D01*
X0259800Y0238233D01*
X0259800Y0233634D01*
X0258012Y0233634D01*
X0255200Y0236445D01*
X0255200Y0238234D01*
X0259800Y0238234D01*
X0259800Y0238634D01*
X0255200Y0238634D01*
X0255200Y0239674D01*
X0255000Y0239474D01*
X0255000Y0236362D01*
X0252071Y0233434D01*
X0247929Y0233434D01*
X0245000Y0236362D01*
X0242071Y0233434D01*
X0237929Y0233434D01*
X0235000Y0236362D01*
X0235000Y0240505D01*
X0237929Y0243434D01*
X0242071Y0243434D01*
X0245000Y0246362D01*
X0245000Y0250505D01*
X0242071Y0253434D01*
X0237929Y0253434D01*
X0235000Y0250505D01*
X0235000Y0246362D01*
X0237929Y0243434D01*
X0242071Y0243434D01*
X0245000Y0240505D01*
X0245000Y0236362D01*
X0245000Y0240505D01*
X0247929Y0243434D01*
X0251040Y0243434D01*
X0247929Y0243434D01*
X0245000Y0246362D01*
X0245000Y0250505D01*
X0247386Y0252890D01*
X0244723Y0252890D01*
X0243551Y0254062D01*
X0243551Y0255634D01*
X0243299Y0255634D01*
X0243299Y0254652D01*
X0242128Y0253481D01*
X0235353Y0253481D01*
X0235000Y0253833D01*
X0234647Y0253481D01*
X0232800Y0253481D01*
X0232800Y0252705D01*
X0235000Y0250505D01*
X0235000Y0246362D01*
X0232071Y0243434D01*
X0228960Y0243434D01*
X0228960Y0243434D01*
X0232071Y0243434D01*
X0235000Y0240505D01*
X0235000Y0236362D01*
X0232071Y0233434D01*
X0227929Y0233434D01*
X0225000Y0236362D01*
X0225000Y0239474D01*
X0225000Y0239474D01*
X0225000Y0236362D01*
X0224000Y0235362D01*
X0224000Y0235138D01*
X0223391Y0233668D01*
X0218391Y0228668D01*
X0218391Y0228668D01*
X0217266Y0227543D01*
X0215796Y0226934D01*
X0160250Y0226934D01*
X0160250Y0222009D01*
X0160931Y0223653D01*
X0162281Y0225003D01*
X0164045Y0225734D01*
X0290200Y0225734D01*
X0290200Y0286134D01*
X0039800Y0286134D01*
X0039800Y0241930D01*
X0041924Y0241930D01*
X0041701Y0242152D01*
X0041701Y0249715D01*
X0041701Y0248861D02*
X0039800Y0248861D01*
X0039800Y0250459D02*
X0042445Y0250459D01*
X0039800Y0252058D02*
X0058500Y0252058D01*
X0058500Y0253656D02*
X0039800Y0253656D01*
X0039800Y0255255D02*
X0058500Y0255255D01*
X0058500Y0256853D02*
X0039800Y0256853D01*
X0039800Y0258452D02*
X0058500Y0258452D01*
X0058500Y0260050D02*
X0039800Y0260050D01*
X0039800Y0261649D02*
X0058500Y0261649D01*
X0059157Y0263247D02*
X0039800Y0263247D01*
X0039800Y0264846D02*
X0059300Y0264846D01*
X0059300Y0266444D02*
X0039800Y0266444D01*
X0039800Y0268043D02*
X0059300Y0268043D01*
X0059537Y0269642D02*
X0039800Y0269642D01*
X0039800Y0271240D02*
X0060781Y0271240D01*
X0062380Y0272839D02*
X0039800Y0272839D01*
X0039800Y0274437D02*
X0063978Y0274437D01*
X0065327Y0276036D02*
X0039800Y0276036D01*
X0039800Y0277634D02*
X0065000Y0277634D01*
X0065000Y0279233D02*
X0039800Y0279233D01*
X0039800Y0280831D02*
X0065326Y0280831D01*
X0066925Y0282430D02*
X0039800Y0282430D01*
X0039800Y0284028D02*
X0290200Y0284028D01*
X0290200Y0282430D02*
X0263075Y0282430D01*
X0264673Y0280831D02*
X0290200Y0280831D01*
X0290200Y0279233D02*
X0265000Y0279233D01*
X0265000Y0277634D02*
X0290200Y0277634D01*
X0290200Y0276036D02*
X0264673Y0276036D01*
X0263075Y0274437D02*
X0290200Y0274437D01*
X0290200Y0272839D02*
X0262383Y0272839D01*
X0260200Y0272839D02*
X0259800Y0272839D01*
X0259800Y0271240D02*
X0260200Y0271240D01*
X0260200Y0269642D02*
X0259800Y0269642D01*
X0263982Y0271240D02*
X0290200Y0271240D01*
X0290200Y0269642D02*
X0264800Y0269642D01*
X0264800Y0268043D02*
X0290200Y0268043D01*
X0290200Y0266444D02*
X0264799Y0266444D01*
X0263201Y0264846D02*
X0290200Y0264846D01*
X0290200Y0263247D02*
X0265724Y0263247D01*
X0266249Y0261649D02*
X0290200Y0261649D01*
X0290200Y0260050D02*
X0266249Y0260050D01*
X0266249Y0256853D02*
X0290200Y0256853D01*
X0290200Y0255255D02*
X0266249Y0255255D01*
X0265761Y0253656D02*
X0290200Y0253656D01*
X0290200Y0252058D02*
X0263164Y0252058D01*
X0262271Y0253656D02*
X0261115Y0253656D01*
X0261115Y0255255D02*
X0262271Y0255255D01*
X0262271Y0256853D02*
X0261115Y0256853D01*
X0262271Y0258452D02*
X0290200Y0258452D01*
X0290200Y0250459D02*
X0264762Y0250459D01*
X0264800Y0248861D02*
X0290200Y0248861D01*
X0290200Y0247262D02*
X0264800Y0247262D01*
X0264019Y0245664D02*
X0290200Y0245664D01*
X0290200Y0244065D02*
X0262420Y0244065D01*
X0262755Y0242467D02*
X0290200Y0242467D01*
X0290200Y0240868D02*
X0264353Y0240868D01*
X0264800Y0239270D02*
X0290200Y0239270D01*
X0290200Y0237671D02*
X0264800Y0237671D01*
X0264427Y0236073D02*
X0290200Y0236073D01*
X0290200Y0234474D02*
X0262829Y0234474D01*
X0260200Y0234474D02*
X0259800Y0234474D01*
X0259800Y0236073D02*
X0260200Y0236073D01*
X0260200Y0237671D02*
X0259800Y0237671D01*
X0259800Y0239270D02*
X0260200Y0239270D01*
X0260200Y0240868D02*
X0259800Y0240868D01*
X0259800Y0242467D02*
X0260200Y0242467D01*
X0260200Y0244065D02*
X0259800Y0244065D01*
X0259800Y0245664D02*
X0260200Y0245664D01*
X0260200Y0247262D02*
X0259800Y0247262D01*
X0255000Y0243434D02*
X0255000Y0273434D01*
X0250000Y0278434D01*
X0246925Y0282430D02*
X0243075Y0282430D01*
X0244673Y0280831D02*
X0245326Y0280831D01*
X0245000Y0279233D02*
X0245000Y0279233D01*
X0245000Y0277634D02*
X0245000Y0277634D01*
X0244673Y0276036D02*
X0245327Y0276036D01*
X0246925Y0274437D02*
X0243075Y0274437D01*
X0242666Y0272839D02*
X0247334Y0272839D01*
X0245735Y0271240D02*
X0244265Y0271240D01*
X0245000Y0269642D02*
X0245000Y0269642D01*
X0245000Y0268043D02*
X0245000Y0268043D01*
X0245000Y0266444D02*
X0245000Y0266444D01*
X0243483Y0264846D02*
X0246517Y0264846D01*
X0243993Y0263247D02*
X0242800Y0263247D01*
X0243299Y0261649D02*
X0243551Y0261649D01*
X0248307Y0258434D02*
X0238740Y0258434D01*
X0240000Y0258434D01*
X0240000Y0268434D01*
X0236517Y0264846D02*
X0233483Y0264846D01*
X0234786Y0263247D02*
X0235214Y0263247D01*
X0231260Y0258434D02*
X0230000Y0258434D01*
X0230000Y0248434D01*
X0232703Y0244065D02*
X0237297Y0244065D01*
X0236962Y0242467D02*
X0233038Y0242467D01*
X0234636Y0240868D02*
X0235364Y0240868D01*
X0235000Y0239270D02*
X0235000Y0239270D01*
X0235000Y0237671D02*
X0235000Y0237671D01*
X0234710Y0236073D02*
X0235290Y0236073D01*
X0236888Y0234474D02*
X0233112Y0234474D01*
X0230000Y0238434D02*
X0225000Y0243434D01*
X0225000Y0263434D01*
X0230000Y0268434D01*
X0225735Y0271240D02*
X0224265Y0271240D01*
X0225000Y0269642D02*
X0225000Y0269642D01*
X0225000Y0268043D02*
X0225000Y0268043D01*
X0222666Y0272839D02*
X0227334Y0272839D01*
X0228012Y0273634D02*
X0229800Y0273634D01*
X0229800Y0278233D01*
X0230200Y0278233D01*
X0230200Y0273634D01*
X0231988Y0273634D01*
X0234800Y0276445D01*
X0234800Y0278234D01*
X0230200Y0278234D01*
X0230200Y0278634D01*
X0229800Y0278634D01*
X0229800Y0283234D01*
X0228012Y0283234D01*
X0225200Y0280422D01*
X0225200Y0278634D01*
X0229800Y0278634D01*
X0229800Y0278234D01*
X0225200Y0278234D01*
X0225200Y0276445D01*
X0228012Y0273634D01*
X0227208Y0274437D02*
X0223075Y0274437D01*
X0224673Y0276036D02*
X0225610Y0276036D01*
X0225200Y0277634D02*
X0225000Y0277634D01*
X0225000Y0279233D02*
X0225200Y0279233D01*
X0225609Y0280831D02*
X0224673Y0280831D01*
X0223075Y0282430D02*
X0227208Y0282430D01*
X0229800Y0282430D02*
X0230200Y0282430D01*
X0230200Y0283234D02*
X0231988Y0283234D01*
X0234800Y0280422D01*
X0234800Y0278634D01*
X0230200Y0278634D01*
X0230200Y0283234D01*
X0230200Y0280831D02*
X0229800Y0280831D01*
X0229800Y0279233D02*
X0230200Y0279233D01*
X0230200Y0277634D02*
X0229800Y0277634D01*
X0229800Y0276036D02*
X0230200Y0276036D01*
X0230200Y0274437D02*
X0229800Y0274437D01*
X0232792Y0274437D02*
X0236925Y0274437D01*
X0237334Y0272839D02*
X0232666Y0272839D01*
X0234265Y0271240D02*
X0235735Y0271240D01*
X0235000Y0269642D02*
X0235000Y0269642D01*
X0235000Y0268043D02*
X0235000Y0268043D01*
X0235000Y0266444D02*
X0235000Y0266444D01*
X0235327Y0276036D02*
X0234390Y0276036D01*
X0234800Y0277634D02*
X0235000Y0277634D01*
X0235000Y0279233D02*
X0234800Y0279233D01*
X0234391Y0280831D02*
X0235326Y0280831D01*
X0236925Y0282430D02*
X0232792Y0282430D01*
X0220000Y0278434D02*
X0215000Y0273434D01*
X0215000Y0253434D01*
X0220000Y0248434D01*
X0217297Y0244065D02*
X0192420Y0244065D01*
X0192755Y0242467D02*
X0216962Y0242467D01*
X0215364Y0240868D02*
X0194353Y0240868D01*
X0194800Y0239270D02*
X0215000Y0239270D01*
X0215000Y0237671D02*
X0194800Y0237671D01*
X0194427Y0236073D02*
X0214482Y0236073D01*
X0219402Y0229679D02*
X0290200Y0229679D01*
X0290200Y0231277D02*
X0221001Y0231277D01*
X0222599Y0232876D02*
X0290200Y0232876D01*
X0290200Y0228080D02*
X0217804Y0228080D01*
X0223725Y0234474D02*
X0226888Y0234474D01*
X0225290Y0236073D02*
X0224710Y0236073D01*
X0225000Y0237671D02*
X0225000Y0237671D01*
X0225000Y0239270D02*
X0225000Y0239270D01*
X0215699Y0245664D02*
X0194019Y0245664D01*
X0194800Y0247262D02*
X0215000Y0247262D01*
X0215000Y0248861D02*
X0194800Y0248861D01*
X0194762Y0250459D02*
X0214014Y0250459D01*
X0212539Y0252058D02*
X0193164Y0252058D01*
X0192271Y0253656D02*
X0191115Y0253656D01*
X0191115Y0255255D02*
X0192271Y0255255D01*
X0192271Y0256853D02*
X0191115Y0256853D01*
X0192271Y0258452D02*
X0212200Y0258452D01*
X0212200Y0260050D02*
X0196249Y0260050D01*
X0196249Y0261649D02*
X0212200Y0261649D01*
X0212200Y0263247D02*
X0195724Y0263247D01*
X0196517Y0264846D02*
X0193201Y0264846D01*
X0192271Y0263247D02*
X0191115Y0263247D01*
X0191115Y0261649D02*
X0192271Y0261649D01*
X0192271Y0260050D02*
X0191115Y0260050D01*
X0196249Y0256853D02*
X0212200Y0256853D01*
X0212200Y0255255D02*
X0196249Y0255255D01*
X0195761Y0253656D02*
X0212200Y0253656D01*
X0206517Y0264846D02*
X0203483Y0264846D01*
X0205000Y0266444D02*
X0205000Y0266444D01*
X0205000Y0268043D02*
X0205000Y0268043D01*
X0205000Y0269642D02*
X0205000Y0269642D01*
X0204265Y0271240D02*
X0205735Y0271240D01*
X0207334Y0272839D02*
X0202666Y0272839D01*
X0203075Y0274437D02*
X0207208Y0274437D01*
X0205610Y0276036D02*
X0204673Y0276036D01*
X0205000Y0277634D02*
X0205200Y0277634D01*
X0205200Y0279233D02*
X0205000Y0279233D01*
X0204673Y0280831D02*
X0205609Y0280831D01*
X0207208Y0282430D02*
X0203075Y0282430D01*
X0196925Y0282430D02*
X0193075Y0282430D01*
X0194673Y0280831D02*
X0195326Y0280831D01*
X0195000Y0279233D02*
X0195000Y0279233D01*
X0195000Y0277634D02*
X0195000Y0277634D01*
X0194673Y0276036D02*
X0195327Y0276036D01*
X0196925Y0274437D02*
X0193075Y0274437D01*
X0192383Y0272839D02*
X0197334Y0272839D01*
X0195735Y0271240D02*
X0193982Y0271240D01*
X0194800Y0269642D02*
X0195000Y0269642D01*
X0195000Y0268043D02*
X0194800Y0268043D01*
X0194799Y0266444D02*
X0195000Y0266444D01*
X0190200Y0269642D02*
X0189800Y0269642D01*
X0189800Y0271240D02*
X0190200Y0271240D01*
X0190200Y0272839D02*
X0189800Y0272839D01*
X0185000Y0273434D02*
X0185000Y0243434D01*
X0180000Y0238434D01*
X0183571Y0234934D02*
X0185000Y0236362D01*
X0185000Y0239474D01*
X0185200Y0239674D01*
X0185200Y0238634D01*
X0189800Y0238634D01*
X0189800Y0238234D01*
X0185200Y0238234D01*
X0185200Y0236445D01*
X0186712Y0234934D01*
X0183571Y0234934D01*
X0184710Y0236073D02*
X0185573Y0236073D01*
X0185200Y0237671D02*
X0185000Y0237671D01*
X0185000Y0239270D02*
X0185200Y0239270D01*
X0189800Y0239270D02*
X0190200Y0239270D01*
X0190200Y0240868D02*
X0189800Y0240868D01*
X0189800Y0242467D02*
X0190200Y0242467D01*
X0190200Y0244065D02*
X0189800Y0244065D01*
X0189800Y0245664D02*
X0190200Y0245664D01*
X0190200Y0247262D02*
X0189800Y0247262D01*
X0178307Y0258434D02*
X0168740Y0258434D01*
X0170000Y0259693D01*
X0170000Y0268434D01*
X0166517Y0264846D02*
X0163483Y0264846D01*
X0164786Y0263247D02*
X0165214Y0263247D01*
X0161260Y0258434D02*
X0160000Y0257174D01*
X0160000Y0248434D01*
X0155000Y0243434D02*
X0160000Y0238434D01*
X0155000Y0243434D02*
X0155000Y0260934D01*
X0160000Y0265934D01*
X0160000Y0268434D01*
X0165000Y0268043D02*
X0165000Y0268043D01*
X0165000Y0266444D02*
X0165000Y0266444D01*
X0165000Y0269642D02*
X0165000Y0269642D01*
X0164265Y0271240D02*
X0165735Y0271240D01*
X0167334Y0272839D02*
X0162666Y0272839D01*
X0162792Y0274437D02*
X0166925Y0274437D01*
X0165327Y0276036D02*
X0164390Y0276036D01*
X0164800Y0277634D02*
X0165000Y0277634D01*
X0165000Y0279233D02*
X0164800Y0279233D01*
X0164391Y0280831D02*
X0165326Y0280831D01*
X0166925Y0282430D02*
X0162792Y0282430D01*
X0160200Y0282430D02*
X0159800Y0282430D01*
X0159800Y0280831D02*
X0160200Y0280831D01*
X0160200Y0279233D02*
X0159800Y0279233D01*
X0159800Y0277634D02*
X0160200Y0277634D01*
X0160200Y0276036D02*
X0159800Y0276036D01*
X0159800Y0274437D02*
X0160200Y0274437D01*
X0155200Y0277634D02*
X0155000Y0277634D01*
X0155000Y0279233D02*
X0155200Y0279233D01*
X0155609Y0280831D02*
X0154673Y0280831D01*
X0153075Y0282430D02*
X0157208Y0282430D01*
X0150000Y0278434D02*
X0155000Y0273434D01*
X0155000Y0265934D01*
X0150000Y0260934D01*
X0150000Y0248434D01*
X0147297Y0244065D02*
X0142800Y0244065D01*
X0142800Y0242467D02*
X0146962Y0242467D01*
X0147929Y0243434D02*
X0145000Y0240505D01*
X0145000Y0236362D01*
X0147929Y0233434D01*
X0148093Y0233434D01*
X0152250Y0229277D01*
X0152250Y0200927D01*
X0152242Y0200935D01*
X0150074Y0201834D01*
X0139926Y0201834D01*
X0137758Y0200935D01*
X0136098Y0199276D01*
X0135200Y0197107D01*
X0135200Y0194760D01*
X0136098Y0192591D01*
X0137758Y0190932D01*
X0139926Y0190034D01*
X0145243Y0190034D01*
X0145500Y0189777D01*
X0145500Y0176177D01*
X0144242Y0177435D01*
X0142074Y0178334D01*
X0131926Y0178334D01*
X0129758Y0177435D01*
X0128756Y0176434D01*
X0123831Y0176434D01*
X0106500Y0192667D01*
X0106500Y0199013D01*
X0106636Y0198686D01*
X0107752Y0197569D01*
X0109211Y0196965D01*
X0110789Y0196965D01*
X0112248Y0197569D01*
X0113364Y0198686D01*
X0113968Y0200144D01*
X0113968Y0200942D01*
X0118660Y0205634D01*
X0142188Y0205634D01*
X0142752Y0205069D01*
X0144211Y0204465D01*
X0145789Y0204465D01*
X0147248Y0205069D01*
X0148364Y0206186D01*
X0148968Y0207644D01*
X0148968Y0209223D01*
X0148364Y0210682D01*
X0147248Y0211798D01*
X0145789Y0212402D01*
X0144211Y0212402D01*
X0142752Y0211798D01*
X0142188Y0211234D01*
X0116943Y0211234D01*
X0115914Y0210807D01*
X0110009Y0204902D01*
X0109211Y0204902D01*
X0107752Y0204298D01*
X0106636Y0203182D01*
X0106500Y0202854D01*
X0106500Y0224229D01*
X0105891Y0225699D01*
X0104766Y0226825D01*
X0101109Y0230481D01*
X0101380Y0230593D01*
X0105126Y0226847D01*
X0105914Y0226060D01*
X0106943Y0225634D01*
X0135557Y0225634D01*
X0136586Y0226060D01*
X0141586Y0231060D01*
X0142374Y0231847D01*
X0142800Y0232877D01*
X0142800Y0257274D01*
X0147330Y0261803D01*
X0147200Y0261491D01*
X0147200Y0252705D01*
X0145000Y0250505D01*
X0145000Y0246362D01*
X0147929Y0243434D01*
X0152071Y0243434D01*
X0152200Y0243563D01*
X0152200Y0243305D01*
X0152071Y0243434D01*
X0147929Y0243434D01*
X0145699Y0245664D02*
X0142800Y0245664D01*
X0142800Y0247262D02*
X0145000Y0247262D01*
X0145000Y0248861D02*
X0142800Y0248861D01*
X0142800Y0250459D02*
X0145000Y0250459D01*
X0146553Y0252058D02*
X0142800Y0252058D01*
X0142800Y0253656D02*
X0147200Y0253656D01*
X0147200Y0255255D02*
X0142800Y0255255D01*
X0142800Y0256853D02*
X0147200Y0256853D01*
X0147200Y0258452D02*
X0143978Y0258452D01*
X0145577Y0260050D02*
X0147200Y0260050D01*
X0147175Y0261649D02*
X0147266Y0261649D01*
X0140854Y0263247D02*
X0119146Y0263247D01*
X0115000Y0263434D02*
X0120000Y0258434D01*
X0120000Y0257174D01*
X0124953Y0256853D02*
X0137200Y0256853D01*
X0137200Y0255255D02*
X0124953Y0255255D01*
X0124823Y0253656D02*
X0137200Y0253656D01*
X0137200Y0252058D02*
X0124953Y0252058D01*
X0124953Y0250459D02*
X0137200Y0250459D01*
X0137200Y0248861D02*
X0124953Y0248861D01*
X0124953Y0247262D02*
X0137200Y0247262D01*
X0137200Y0245664D02*
X0132270Y0245664D01*
X0130200Y0245664D02*
X0129800Y0245664D01*
X0129800Y0244065D02*
X0130200Y0244065D01*
X0130200Y0242467D02*
X0129800Y0242467D01*
X0129800Y0240868D02*
X0130200Y0240868D01*
X0130200Y0239270D02*
X0129800Y0239270D01*
X0125200Y0239270D02*
X0125000Y0239270D01*
X0125000Y0240868D02*
X0125200Y0240868D01*
X0125304Y0242467D02*
X0124984Y0242467D01*
X0124322Y0244065D02*
X0125979Y0244065D01*
X0124311Y0245664D02*
X0127730Y0245664D01*
X0134021Y0244065D02*
X0137200Y0244065D01*
X0137200Y0242467D02*
X0134696Y0242467D01*
X0134800Y0240868D02*
X0137200Y0240868D01*
X0137200Y0239270D02*
X0134800Y0239270D01*
X0134800Y0237671D02*
X0137200Y0237671D01*
X0137200Y0236073D02*
X0134800Y0236073D01*
X0134708Y0234474D02*
X0137081Y0234474D01*
X0135482Y0232876D02*
X0134075Y0232876D01*
X0133884Y0231277D02*
X0132416Y0231277D01*
X0135000Y0228434D02*
X0140000Y0233434D01*
X0140000Y0258434D01*
X0150000Y0268434D01*
X0145000Y0268043D02*
X0145000Y0268043D01*
X0145000Y0269642D02*
X0145000Y0269642D01*
X0144265Y0271240D02*
X0145735Y0271240D01*
X0147334Y0272839D02*
X0142666Y0272839D01*
X0143075Y0274437D02*
X0146925Y0274437D01*
X0145327Y0276036D02*
X0144673Y0276036D01*
X0145000Y0277634D02*
X0145000Y0277634D01*
X0145000Y0279233D02*
X0145000Y0279233D01*
X0145326Y0280831D02*
X0144673Y0280831D01*
X0143075Y0282430D02*
X0146925Y0282430D01*
X0136925Y0282430D02*
X0132792Y0282430D01*
X0131988Y0283234D02*
X0130200Y0283234D01*
X0130200Y0278634D01*
X0129800Y0278634D01*
X0129800Y0283234D01*
X0128012Y0283234D01*
X0125200Y0280422D01*
X0125200Y0278634D01*
X0129800Y0278634D01*
X0129800Y0278234D01*
X0125200Y0278234D01*
X0125200Y0276445D01*
X0128012Y0273634D01*
X0129800Y0273634D01*
X0129800Y0278233D01*
X0130200Y0278233D01*
X0130200Y0273634D01*
X0131988Y0273634D01*
X0134800Y0276445D01*
X0134800Y0278234D01*
X0130200Y0278234D01*
X0130200Y0278634D01*
X0134800Y0278634D01*
X0134800Y0280422D01*
X0131988Y0283234D01*
X0130200Y0282430D02*
X0129800Y0282430D01*
X0129800Y0280831D02*
X0130200Y0280831D01*
X0130200Y0279233D02*
X0129800Y0279233D01*
X0129800Y0277634D02*
X0130200Y0277634D01*
X0130200Y0276036D02*
X0129800Y0276036D01*
X0129800Y0274437D02*
X0130200Y0274437D01*
X0132792Y0274437D02*
X0136925Y0274437D01*
X0137334Y0272839D02*
X0132666Y0272839D01*
X0134265Y0271240D02*
X0135735Y0271240D01*
X0135000Y0269642D02*
X0135000Y0269642D01*
X0135000Y0268043D02*
X0135000Y0268043D01*
X0135000Y0266444D02*
X0135000Y0266444D01*
X0133483Y0264846D02*
X0136517Y0264846D01*
X0139256Y0261649D02*
X0123865Y0261649D01*
X0124953Y0260050D02*
X0137657Y0260050D01*
X0137200Y0258452D02*
X0124953Y0258452D01*
X0123483Y0264846D02*
X0126517Y0264846D01*
X0125000Y0266444D02*
X0125000Y0266444D01*
X0125000Y0268043D02*
X0125000Y0268043D01*
X0125000Y0269642D02*
X0125000Y0269642D01*
X0124265Y0271240D02*
X0125735Y0271240D01*
X0127334Y0272839D02*
X0122666Y0272839D01*
X0123075Y0274437D02*
X0127208Y0274437D01*
X0125610Y0276036D02*
X0124673Y0276036D01*
X0125000Y0277634D02*
X0125200Y0277634D01*
X0125200Y0279233D02*
X0125000Y0279233D01*
X0124673Y0280831D02*
X0125609Y0280831D01*
X0127208Y0282430D02*
X0123075Y0282430D01*
X0116925Y0282430D02*
X0113075Y0282430D01*
X0114673Y0280831D02*
X0115326Y0280831D01*
X0115000Y0279233D02*
X0115000Y0279233D01*
X0115000Y0277634D02*
X0115000Y0277634D01*
X0115000Y0273434D02*
X0110000Y0278434D01*
X0106925Y0282430D02*
X0103075Y0282430D01*
X0104673Y0280831D02*
X0105326Y0280831D01*
X0105000Y0279233D02*
X0105000Y0279233D01*
X0105000Y0277634D02*
X0105000Y0277634D01*
X0105000Y0273434D02*
X0105000Y0263434D01*
X0110000Y0258434D01*
X0110000Y0257174D01*
X0110661Y0261733D02*
X0112741Y0261733D01*
X0112626Y0261847D01*
X0112200Y0262877D01*
X0112200Y0263845D01*
X0111988Y0263634D01*
X0110200Y0263634D01*
X0110200Y0268233D01*
X0109800Y0268233D01*
X0109800Y0263634D01*
X0108760Y0263634D01*
X0110661Y0261733D01*
X0109146Y0263247D02*
X0112200Y0263247D01*
X0110200Y0264846D02*
X0109800Y0264846D01*
X0109800Y0266444D02*
X0110200Y0266444D01*
X0110200Y0268043D02*
X0109800Y0268043D01*
X0109800Y0268634D02*
X0109800Y0273234D01*
X0108012Y0273234D01*
X0107800Y0273022D01*
X0107800Y0273563D01*
X0107929Y0273434D01*
X0111040Y0273434D01*
X0111240Y0273234D01*
X0110200Y0273234D01*
X0110200Y0268634D01*
X0109800Y0268634D01*
X0109800Y0269642D02*
X0110200Y0269642D01*
X0110200Y0271240D02*
X0109800Y0271240D01*
X0109800Y0272839D02*
X0110200Y0272839D01*
X0115000Y0273434D02*
X0115000Y0263434D01*
X0105047Y0258452D02*
X0104800Y0258452D01*
X0104800Y0256853D02*
X0105047Y0256853D01*
X0105047Y0255255D02*
X0104800Y0255255D01*
X0104800Y0253656D02*
X0105177Y0253656D01*
X0105047Y0252058D02*
X0104721Y0252058D01*
X0105047Y0250459D02*
X0104126Y0250459D01*
X0105047Y0248861D02*
X0102561Y0248861D01*
X0100200Y0248861D02*
X0099800Y0248861D01*
X0099800Y0250459D02*
X0100200Y0250459D01*
X0100200Y0252058D02*
X0099800Y0252058D01*
X0099800Y0253656D02*
X0100200Y0253656D01*
X0100200Y0255255D02*
X0099800Y0255255D01*
X0095200Y0255255D02*
X0095000Y0255255D01*
X0095000Y0256853D02*
X0095200Y0256853D01*
X0095200Y0258452D02*
X0095000Y0258452D01*
X0094949Y0260050D02*
X0095317Y0260050D01*
X0096040Y0261649D02*
X0094287Y0261649D01*
X0092800Y0263247D02*
X0097894Y0263247D01*
X0096517Y0264846D02*
X0093483Y0264846D01*
X0095000Y0266444D02*
X0095000Y0266444D01*
X0095000Y0268043D02*
X0095000Y0268043D01*
X0095000Y0269642D02*
X0095000Y0269642D01*
X0094265Y0271240D02*
X0095735Y0271240D01*
X0097334Y0272839D02*
X0092666Y0272839D01*
X0091988Y0273634D02*
X0094800Y0276445D01*
X0094800Y0278234D01*
X0090200Y0278234D01*
X0090200Y0278634D01*
X0089800Y0278634D01*
X0089800Y0283234D01*
X0088012Y0283234D01*
X0085200Y0280422D01*
X0085200Y0278634D01*
X0089800Y0278634D01*
X0089800Y0278234D01*
X0085200Y0278234D01*
X0085200Y0276445D01*
X0088012Y0273634D01*
X0089800Y0273634D01*
X0089800Y0278233D01*
X0090200Y0278233D01*
X0090200Y0273634D01*
X0091988Y0273634D01*
X0092792Y0274437D02*
X0096925Y0274437D01*
X0095327Y0276036D02*
X0094390Y0276036D01*
X0094800Y0277634D02*
X0095000Y0277634D01*
X0094800Y0278634D02*
X0094800Y0280422D01*
X0091988Y0283234D01*
X0090200Y0283234D01*
X0090200Y0278634D01*
X0094800Y0278634D01*
X0094800Y0279233D02*
X0095000Y0279233D01*
X0095326Y0280831D02*
X0094391Y0280831D01*
X0092792Y0282430D02*
X0096925Y0282430D01*
X0100000Y0278434D02*
X0105000Y0273434D01*
X0090200Y0274437D02*
X0089800Y0274437D01*
X0089800Y0276036D02*
X0090200Y0276036D01*
X0090200Y0277634D02*
X0089800Y0277634D01*
X0089800Y0279233D02*
X0090200Y0279233D01*
X0090200Y0280831D02*
X0089800Y0280831D01*
X0089800Y0282430D02*
X0090200Y0282430D01*
X0087208Y0282430D02*
X0083075Y0282430D01*
X0084673Y0280831D02*
X0085609Y0280831D01*
X0085200Y0279233D02*
X0085000Y0279233D01*
X0085000Y0277634D02*
X0085200Y0277634D01*
X0085610Y0276036D02*
X0084673Y0276036D01*
X0083075Y0274437D02*
X0087208Y0274437D01*
X0087334Y0272839D02*
X0082666Y0272839D01*
X0084265Y0271240D02*
X0085735Y0271240D01*
X0085000Y0269642D02*
X0085000Y0269642D01*
X0085000Y0268043D02*
X0085000Y0268043D01*
X0085000Y0266444D02*
X0085000Y0266444D01*
X0083483Y0264846D02*
X0086517Y0264846D01*
X0087200Y0263247D02*
X0082800Y0263247D01*
X0084287Y0261649D02*
X0085713Y0261649D01*
X0085051Y0260050D02*
X0084949Y0260050D01*
X0085000Y0258452D02*
X0085000Y0258452D01*
X0085000Y0256853D02*
X0085000Y0256853D01*
X0085000Y0255255D02*
X0085000Y0255255D01*
X0085000Y0253656D02*
X0085000Y0253656D01*
X0085000Y0252058D02*
X0085000Y0252058D01*
X0084387Y0250459D02*
X0085613Y0250459D01*
X0085847Y0248861D02*
X0084153Y0248861D01*
X0084953Y0247262D02*
X0085047Y0247262D01*
X0085047Y0245664D02*
X0084953Y0245664D01*
X0084953Y0244065D02*
X0085047Y0244065D01*
X0085047Y0242467D02*
X0084953Y0242467D01*
X0084665Y0240868D02*
X0085335Y0240868D01*
X0090000Y0237193D02*
X0098760Y0237193D01*
X0100000Y0238434D01*
X0100000Y0235934D01*
X0107500Y0228434D01*
X0135000Y0228434D01*
X0137008Y0226482D02*
X0152250Y0226482D01*
X0152250Y0228080D02*
X0138606Y0228080D01*
X0140205Y0229679D02*
X0151848Y0229679D01*
X0150249Y0231277D02*
X0141803Y0231277D01*
X0142800Y0232876D02*
X0148651Y0232876D01*
X0146888Y0234474D02*
X0142800Y0234474D01*
X0142800Y0236073D02*
X0145290Y0236073D01*
X0145000Y0237671D02*
X0142800Y0237671D01*
X0142800Y0239270D02*
X0145000Y0239270D01*
X0145364Y0240868D02*
X0142800Y0240868D01*
X0125200Y0237671D02*
X0125000Y0237671D01*
X0125000Y0236073D02*
X0125200Y0236073D01*
X0125292Y0234474D02*
X0125000Y0234474D01*
X0124352Y0232876D02*
X0125925Y0232876D01*
X0127584Y0231277D02*
X0122915Y0231277D01*
X0120000Y0238434D02*
X0120000Y0249693D01*
X0110000Y0249693D02*
X0110000Y0238434D01*
X0105000Y0237671D02*
X0105000Y0237671D01*
X0105000Y0236073D02*
X0105000Y0236073D01*
X0105000Y0239270D02*
X0105000Y0239270D01*
X0105000Y0240868D02*
X0105000Y0240868D01*
X0104984Y0242467D02*
X0105016Y0242467D01*
X0105678Y0244065D02*
X0104322Y0244065D01*
X0105689Y0245664D02*
X0102841Y0245664D01*
X0105047Y0247262D02*
X0094953Y0247262D01*
X0094953Y0245664D02*
X0097159Y0245664D01*
X0095678Y0244065D02*
X0094953Y0244065D01*
X0094953Y0242467D02*
X0095016Y0242467D01*
X0095000Y0240868D02*
X0094665Y0240868D01*
X0090000Y0237193D02*
X0080000Y0237193D01*
X0076240Y0237193D01*
X0070000Y0243434D01*
X0070000Y0255934D01*
X0070000Y0268434D01*
X0073483Y0264846D02*
X0076517Y0264846D01*
X0077200Y0263247D02*
X0072800Y0263247D01*
X0074287Y0261649D02*
X0075713Y0261649D01*
X0075051Y0260050D02*
X0074949Y0260050D01*
X0075000Y0258452D02*
X0075000Y0258452D01*
X0075000Y0256853D02*
X0075000Y0256853D01*
X0075000Y0255255D02*
X0075000Y0255255D01*
X0075000Y0253656D02*
X0075000Y0253656D01*
X0075000Y0252058D02*
X0075000Y0252058D01*
X0074387Y0250459D02*
X0075613Y0250459D01*
X0075847Y0248861D02*
X0072998Y0248861D01*
X0072800Y0247262D02*
X0075047Y0247262D01*
X0075047Y0245664D02*
X0072800Y0245664D01*
X0073328Y0244065D02*
X0075047Y0244065D01*
X0075047Y0242467D02*
X0074927Y0242467D01*
X0080000Y0244674D02*
X0080000Y0255934D01*
X0080000Y0268434D01*
X0075000Y0268043D02*
X0075000Y0268043D01*
X0075000Y0266444D02*
X0075000Y0266444D01*
X0075000Y0269642D02*
X0075000Y0269642D01*
X0074265Y0271240D02*
X0075735Y0271240D01*
X0077334Y0272839D02*
X0072666Y0272839D01*
X0073075Y0274437D02*
X0076925Y0274437D01*
X0076925Y0282430D02*
X0073075Y0282430D01*
X0090000Y0268434D02*
X0090000Y0255934D01*
X0090000Y0244674D01*
X0094153Y0248861D02*
X0097439Y0248861D01*
X0095873Y0250459D02*
X0094387Y0250459D01*
X0095000Y0252058D02*
X0095279Y0252058D01*
X0095200Y0253656D02*
X0095000Y0253656D01*
X0101912Y0229679D02*
X0102295Y0229679D01*
X0103510Y0228080D02*
X0103894Y0228080D01*
X0105109Y0226482D02*
X0105492Y0226482D01*
X0106229Y0224883D02*
X0130839Y0224883D01*
X0129758Y0224435D02*
X0131926Y0225334D01*
X0142074Y0225334D01*
X0144242Y0224435D01*
X0145902Y0222776D01*
X0146800Y0220607D01*
X0146800Y0218260D01*
X0145902Y0216091D01*
X0144242Y0214432D01*
X0142074Y0213534D01*
X0131926Y0213534D01*
X0129758Y0214432D01*
X0128098Y0216091D01*
X0127200Y0218260D01*
X0127200Y0220607D01*
X0128098Y0222776D01*
X0129758Y0224435D01*
X0128607Y0223285D02*
X0106500Y0223285D01*
X0106500Y0221686D02*
X0127647Y0221686D01*
X0127200Y0220088D02*
X0106500Y0220088D01*
X0106500Y0218489D02*
X0127200Y0218489D01*
X0127767Y0216891D02*
X0106500Y0216891D01*
X0106500Y0215292D02*
X0128898Y0215292D01*
X0131540Y0213694D02*
X0106500Y0213694D01*
X0106500Y0212095D02*
X0143470Y0212095D01*
X0142460Y0213694D02*
X0152250Y0213694D01*
X0152250Y0215292D02*
X0145102Y0215292D01*
X0146233Y0216891D02*
X0152250Y0216891D01*
X0152250Y0218489D02*
X0146800Y0218489D01*
X0146800Y0220088D02*
X0152250Y0220088D01*
X0152250Y0221686D02*
X0146353Y0221686D01*
X0145393Y0223285D02*
X0152250Y0223285D01*
X0152250Y0224883D02*
X0143161Y0224883D01*
X0146530Y0212095D02*
X0152250Y0212095D01*
X0152250Y0210497D02*
X0148441Y0210497D01*
X0148968Y0208898D02*
X0152250Y0208898D01*
X0152250Y0207300D02*
X0148826Y0207300D01*
X0147880Y0205701D02*
X0152250Y0205701D01*
X0152250Y0204103D02*
X0117129Y0204103D01*
X0115530Y0202504D02*
X0152250Y0202504D01*
X0145000Y0208434D02*
X0117500Y0208434D01*
X0110000Y0200934D01*
X0113968Y0200906D02*
X0137728Y0200906D01*
X0136130Y0199307D02*
X0113622Y0199307D01*
X0112387Y0197709D02*
X0135449Y0197709D01*
X0135200Y0196110D02*
X0106500Y0196110D01*
X0106500Y0197709D02*
X0107613Y0197709D01*
X0106500Y0194511D02*
X0135303Y0194511D01*
X0135965Y0192913D02*
X0106500Y0192913D01*
X0107944Y0191314D02*
X0137375Y0191314D01*
X0145500Y0189716D02*
X0109651Y0189716D01*
X0111357Y0188117D02*
X0145500Y0188117D01*
X0145500Y0186519D02*
X0113064Y0186519D01*
X0114770Y0184920D02*
X0145500Y0184920D01*
X0145500Y0183322D02*
X0116477Y0183322D01*
X0118184Y0181723D02*
X0145500Y0181723D01*
X0145500Y0180125D02*
X0119890Y0180125D01*
X0121597Y0178526D02*
X0145500Y0178526D01*
X0145500Y0176928D02*
X0144750Y0176928D01*
X0157613Y0164140D02*
X0160200Y0164140D01*
X0160200Y0165738D02*
X0159212Y0165738D01*
X0160125Y0167337D02*
X0160200Y0167337D01*
X0160200Y0162541D02*
X0156015Y0162541D01*
X0154416Y0160943D02*
X0160200Y0160943D01*
X0160200Y0159344D02*
X0152818Y0159344D01*
X0151219Y0157746D02*
X0160200Y0157746D01*
X0160200Y0156147D02*
X0149621Y0156147D01*
X0148022Y0154549D02*
X0160200Y0154549D01*
X0160200Y0152950D02*
X0108494Y0152950D01*
X0109000Y0151352D02*
X0160200Y0151352D01*
X0160200Y0149753D02*
X0108841Y0149753D01*
X0107878Y0148155D02*
X0160200Y0148155D01*
X0160200Y0146556D02*
X0106279Y0146556D01*
X0108155Y0144958D02*
X0131845Y0144958D01*
X0131780Y0143359D02*
X0108220Y0143359D01*
X0108220Y0141761D02*
X0131780Y0141761D01*
X0131780Y0140162D02*
X0108220Y0140162D01*
X0108220Y0138564D02*
X0131780Y0138564D01*
X0131780Y0136965D02*
X0108220Y0136965D01*
X0108220Y0135367D02*
X0131780Y0135367D01*
X0131780Y0133768D02*
X0108220Y0133768D01*
X0108220Y0132170D02*
X0131780Y0132170D01*
X0131780Y0130571D02*
X0108220Y0130571D01*
X0108220Y0128973D02*
X0131780Y0128973D01*
X0131780Y0127374D02*
X0108220Y0127374D01*
X0108220Y0125775D02*
X0131780Y0125775D01*
X0131780Y0124177D02*
X0108220Y0124177D01*
X0108220Y0122578D02*
X0131780Y0122578D01*
X0132775Y0120980D02*
X0107225Y0120980D01*
X0095250Y0119381D02*
X0136000Y0119381D01*
X0136000Y0117783D02*
X0094792Y0117783D01*
X0093408Y0116184D02*
X0134594Y0116184D01*
X0132996Y0114586D02*
X0091809Y0114586D01*
X0090211Y0112987D02*
X0131397Y0112987D01*
X0129798Y0111389D02*
X0088612Y0111389D01*
X0087014Y0109790D02*
X0123578Y0109790D01*
X0123350Y0108192D02*
X0086650Y0108192D01*
X0086650Y0106593D02*
X0123350Y0106593D01*
X0123350Y0104995D02*
X0086650Y0104995D01*
X0086650Y0103396D02*
X0123350Y0103396D01*
X0123350Y0101798D02*
X0086650Y0101798D01*
X0086650Y0100199D02*
X0123350Y0100199D01*
X0123350Y0098601D02*
X0086650Y0098601D01*
X0086650Y0097002D02*
X0123350Y0097002D01*
X0123350Y0095404D02*
X0086650Y0095404D01*
X0086650Y0093805D02*
X0123350Y0093805D01*
X0123350Y0092207D02*
X0086650Y0092207D01*
X0085338Y0085813D02*
X0124662Y0085813D01*
X0123550Y0084214D02*
X0086450Y0084214D01*
X0086450Y0082616D02*
X0123550Y0082616D01*
X0123550Y0081017D02*
X0086450Y0081017D01*
X0086450Y0079419D02*
X0123550Y0079419D01*
X0123550Y0077820D02*
X0086450Y0077820D01*
X0086450Y0074623D02*
X0123550Y0074623D01*
X0123550Y0073025D02*
X0086450Y0073025D01*
X0086450Y0071426D02*
X0123550Y0071426D01*
X0123550Y0069828D02*
X0086450Y0069828D01*
X0078550Y0069828D02*
X0039800Y0069828D01*
X0039800Y0071426D02*
X0078550Y0071426D01*
X0078550Y0073025D02*
X0039800Y0073025D01*
X0039800Y0074623D02*
X0078550Y0074623D01*
X0082225Y0077820D02*
X0082775Y0077820D01*
X0082775Y0079419D02*
X0082225Y0079419D01*
X0082225Y0081017D02*
X0082775Y0081017D01*
X0082775Y0082616D02*
X0082225Y0082616D01*
X0082225Y0084214D02*
X0082775Y0084214D01*
X0082775Y0085813D02*
X0082225Y0085813D01*
X0078350Y0092207D02*
X0063299Y0092207D01*
X0063299Y0093805D02*
X0078350Y0093805D01*
X0078350Y0095404D02*
X0063299Y0095404D01*
X0063769Y0097002D02*
X0078350Y0097002D01*
X0082500Y0100734D02*
X0063540Y0100734D01*
X0058740Y0095934D01*
X0060645Y0101798D02*
X0049179Y0101798D01*
X0046662Y0104995D02*
X0056588Y0104995D01*
X0054646Y0106593D02*
X0046662Y0106593D01*
X0046662Y0107949D02*
X0046662Y0110167D01*
X0046540Y0110624D01*
X0046303Y0111035D01*
X0045967Y0111370D01*
X0045557Y0111607D01*
X0045099Y0111730D01*
X0042881Y0111730D01*
X0042881Y0107949D01*
X0046662Y0107949D01*
X0046662Y0108192D02*
X0053410Y0108192D01*
X0052575Y0109790D02*
X0046662Y0109790D01*
X0045935Y0111389D02*
X0052084Y0111389D01*
X0042881Y0111389D02*
X0042119Y0111389D01*
X0042119Y0109790D02*
X0042881Y0109790D01*
X0042881Y0108192D02*
X0042119Y0108192D01*
X0058379Y0125775D02*
X0065512Y0125775D01*
X0064589Y0127374D02*
X0059431Y0127374D01*
X0060104Y0128973D02*
X0063927Y0128973D01*
X0063499Y0130571D02*
X0060498Y0130571D01*
X0061326Y0122578D02*
X0062926Y0122578D01*
X0062926Y0120980D02*
X0061326Y0120980D01*
X0061326Y0119381D02*
X0062926Y0119381D01*
X0062926Y0117783D02*
X0061326Y0117783D01*
X0061326Y0116184D02*
X0062926Y0116184D01*
X0062926Y0114586D02*
X0061326Y0114586D01*
X0062926Y0112987D02*
X0079021Y0112987D01*
X0078500Y0111389D02*
X0072168Y0111389D01*
X0071677Y0109790D02*
X0078500Y0109790D01*
X0078350Y0108192D02*
X0070842Y0108192D01*
X0069606Y0106593D02*
X0078350Y0106593D01*
X0078350Y0104995D02*
X0067664Y0104995D01*
X0072389Y0114586D02*
X0080496Y0114586D01*
X0082094Y0116184D02*
X0072119Y0116184D01*
X0071582Y0117783D02*
X0083693Y0117783D01*
X0085291Y0119381D02*
X0070708Y0119381D01*
X0060982Y0159344D02*
X0094476Y0159344D01*
X0097746Y0168935D02*
X0120189Y0168935D01*
X0118427Y0170534D02*
X0098499Y0170534D01*
X0098800Y0172132D02*
X0116720Y0172132D01*
X0115014Y0173731D02*
X0098749Y0173731D01*
X0098087Y0175329D02*
X0113307Y0175329D01*
X0111601Y0176928D02*
X0096750Y0176928D01*
X0103068Y0184920D02*
X0062564Y0184920D01*
X0061691Y0186519D02*
X0101362Y0186519D01*
X0099655Y0188117D02*
X0059111Y0188117D01*
X0055200Y0188117D02*
X0054800Y0188117D01*
X0054800Y0186519D02*
X0055200Y0186519D01*
X0055200Y0184920D02*
X0054800Y0184920D01*
X0054800Y0181723D02*
X0055200Y0181723D01*
X0055200Y0180125D02*
X0054800Y0180125D01*
X0048520Y0180125D02*
X0039800Y0180125D01*
X0039800Y0181723D02*
X0047509Y0181723D01*
X0060206Y0168935D02*
X0080254Y0168935D01*
X0077727Y0189716D02*
X0098660Y0189716D01*
X0098485Y0191314D02*
X0079788Y0191314D01*
X0081386Y0192913D02*
X0098500Y0192913D01*
X0098500Y0194511D02*
X0082985Y0194511D01*
X0084583Y0196110D02*
X0098500Y0196110D01*
X0098500Y0197709D02*
X0086182Y0197709D01*
X0087780Y0199307D02*
X0098500Y0199307D01*
X0098500Y0200906D02*
X0089379Y0200906D01*
X0090977Y0202504D02*
X0098500Y0202504D01*
X0098500Y0204103D02*
X0092468Y0204103D01*
X0093000Y0205701D02*
X0098500Y0205701D01*
X0098500Y0207300D02*
X0093000Y0207300D01*
X0093000Y0208898D02*
X0098500Y0208898D01*
X0098500Y0210497D02*
X0093000Y0210497D01*
X0093000Y0212095D02*
X0098500Y0212095D01*
X0098500Y0213694D02*
X0094460Y0213694D01*
X0097102Y0215292D02*
X0098500Y0215292D01*
X0098500Y0216891D02*
X0098233Y0216891D01*
X0106500Y0210497D02*
X0115603Y0210497D01*
X0114005Y0208898D02*
X0106500Y0208898D01*
X0106500Y0207300D02*
X0112406Y0207300D01*
X0110808Y0205701D02*
X0106500Y0205701D01*
X0106500Y0204103D02*
X0107557Y0204103D01*
X0123303Y0176928D02*
X0129250Y0176928D01*
X0147131Y0144958D02*
X0160200Y0144958D01*
X0160200Y0143359D02*
X0147197Y0143359D01*
X0147197Y0141761D02*
X0160200Y0141761D01*
X0160200Y0140162D02*
X0147197Y0140162D01*
X0147197Y0138564D02*
X0160200Y0138564D01*
X0160200Y0136965D02*
X0147197Y0136965D01*
X0147197Y0135367D02*
X0160200Y0135367D01*
X0160200Y0133768D02*
X0147197Y0133768D01*
X0147197Y0132170D02*
X0160200Y0132170D01*
X0160200Y0130571D02*
X0147197Y0130571D01*
X0147197Y0128973D02*
X0160200Y0128973D01*
X0160200Y0127374D02*
X0147197Y0127374D01*
X0147197Y0125775D02*
X0160200Y0125775D01*
X0160200Y0124177D02*
X0147197Y0124177D01*
X0147197Y0122578D02*
X0160200Y0122578D01*
X0160200Y0120980D02*
X0146202Y0120980D01*
X0144000Y0119381D02*
X0160200Y0119381D01*
X0160200Y0117783D02*
X0149610Y0117783D01*
X0151209Y0116184D02*
X0160200Y0116184D01*
X0160200Y0114586D02*
X0152553Y0114586D01*
X0152800Y0112987D02*
X0160200Y0112987D01*
X0160200Y0111389D02*
X0152800Y0111389D01*
X0152800Y0109790D02*
X0160200Y0109790D01*
X0160200Y0108192D02*
X0152800Y0108192D01*
X0152800Y0106593D02*
X0160200Y0106593D01*
X0160200Y0104995D02*
X0152800Y0104995D01*
X0152800Y0103396D02*
X0160200Y0103396D01*
X0160200Y0101798D02*
X0152800Y0101798D01*
X0154953Y0100199D02*
X0160200Y0100199D01*
X0160200Y0098601D02*
X0154953Y0098601D01*
X0154953Y0097002D02*
X0160200Y0097002D01*
X0160200Y0095404D02*
X0154953Y0095404D01*
X0154953Y0093805D02*
X0160200Y0093805D01*
X0160200Y0092207D02*
X0154953Y0092207D01*
X0154953Y0090608D02*
X0160200Y0090608D01*
X0160200Y0089010D02*
X0154953Y0089010D01*
X0154953Y0087411D02*
X0160200Y0087411D01*
X0160200Y0085813D02*
X0154460Y0085813D01*
X0153406Y0084214D02*
X0160200Y0084214D01*
X0160200Y0082616D02*
X0154362Y0082616D01*
X0154362Y0081017D02*
X0160200Y0081017D01*
X0160200Y0079419D02*
X0154362Y0079419D01*
X0154362Y0077820D02*
X0160200Y0077820D01*
X0160200Y0076222D02*
X0153707Y0076222D01*
X0154102Y0074623D02*
X0160200Y0074623D01*
X0160200Y0073025D02*
X0154162Y0073025D01*
X0154162Y0069828D02*
X0160200Y0069828D01*
X0160200Y0071426D02*
X0150381Y0071426D01*
X0149619Y0071426D02*
X0131450Y0071426D01*
X0131450Y0069828D02*
X0145838Y0069828D01*
X0145838Y0073025D02*
X0131450Y0073025D01*
X0131450Y0074623D02*
X0145898Y0074623D01*
X0150000Y0080067D02*
X0150000Y0089693D01*
X0145047Y0092207D02*
X0131650Y0092207D01*
X0131650Y0093805D02*
X0145047Y0093805D01*
X0145047Y0095404D02*
X0131650Y0095404D01*
X0131650Y0097002D02*
X0145047Y0097002D01*
X0145047Y0098601D02*
X0131650Y0098601D01*
X0131650Y0100199D02*
X0145047Y0100199D01*
X0147200Y0101798D02*
X0131650Y0101798D01*
X0133120Y0103396D02*
X0147200Y0103396D01*
X0147200Y0104995D02*
X0134718Y0104995D01*
X0136317Y0106593D02*
X0147200Y0106593D01*
X0147200Y0108192D02*
X0137915Y0108192D01*
X0139514Y0109790D02*
X0147200Y0109790D01*
X0147200Y0111389D02*
X0141112Y0111389D01*
X0142711Y0112987D02*
X0146486Y0112987D01*
X0147500Y0115934D02*
X0140000Y0115934D01*
X0147500Y0115934D02*
X0150000Y0113434D01*
X0150000Y0097174D01*
X0127775Y0085813D02*
X0127225Y0085813D01*
X0127225Y0084214D02*
X0127775Y0084214D01*
X0127775Y0082616D02*
X0127225Y0082616D01*
X0127225Y0081017D02*
X0127775Y0081017D01*
X0127775Y0079419D02*
X0127225Y0079419D01*
X0127225Y0077820D02*
X0127775Y0077820D01*
X0077500Y0208434D02*
X0056250Y0229684D01*
X0058299Y0242467D02*
X0058500Y0242467D01*
X0062500Y0245934D02*
X0053740Y0245934D01*
X0057555Y0250459D02*
X0058500Y0250459D01*
X0058500Y0248861D02*
X0058299Y0248861D01*
X0046260Y0241327D02*
X0042500Y0237567D01*
X0041701Y0242467D02*
X0039800Y0242467D01*
X0039800Y0244065D02*
X0041701Y0244065D01*
X0041701Y0245664D02*
X0039800Y0245664D01*
X0039800Y0247262D02*
X0041701Y0247262D01*
X0039800Y0285627D02*
X0290200Y0285627D01*
X0262271Y0263247D02*
X0261115Y0263247D01*
X0261115Y0261649D02*
X0262271Y0261649D01*
X0262271Y0260050D02*
X0261115Y0260050D01*
X0246553Y0252058D02*
X0243447Y0252058D01*
X0243957Y0253656D02*
X0242303Y0253656D01*
X0243299Y0255255D02*
X0243551Y0255255D01*
X0245000Y0250459D02*
X0245000Y0250459D01*
X0245000Y0248861D02*
X0245000Y0248861D01*
X0245000Y0247262D02*
X0245000Y0247262D01*
X0244301Y0245664D02*
X0245699Y0245664D01*
X0247297Y0244065D02*
X0242703Y0244065D01*
X0243038Y0242467D02*
X0246962Y0242467D01*
X0245364Y0240868D02*
X0244636Y0240868D01*
X0245000Y0239270D02*
X0245000Y0239270D01*
X0245000Y0237671D02*
X0245000Y0237671D01*
X0244710Y0236073D02*
X0245290Y0236073D01*
X0246888Y0234474D02*
X0243112Y0234474D01*
X0250000Y0238434D02*
X0255000Y0243434D01*
X0251040Y0243434D02*
X0251040Y0243434D01*
X0255000Y0239270D02*
X0255200Y0239270D01*
X0255200Y0237671D02*
X0255000Y0237671D01*
X0254710Y0236073D02*
X0255573Y0236073D01*
X0257171Y0234474D02*
X0253112Y0234474D01*
X0235699Y0245664D02*
X0234301Y0245664D01*
X0235000Y0247262D02*
X0235000Y0247262D01*
X0235000Y0248861D02*
X0235000Y0248861D01*
X0235000Y0250459D02*
X0235000Y0250459D01*
X0233447Y0252058D02*
X0236553Y0252058D01*
X0235177Y0253656D02*
X0234823Y0253656D01*
X0215000Y0277634D02*
X0214800Y0277634D01*
X0214800Y0279233D02*
X0215000Y0279233D01*
X0215326Y0280831D02*
X0214391Y0280831D01*
X0212792Y0282430D02*
X0216925Y0282430D01*
X0210200Y0282430D02*
X0209800Y0282430D01*
X0209800Y0280831D02*
X0210200Y0280831D01*
X0210200Y0279233D02*
X0209800Y0279233D01*
X0209800Y0277634D02*
X0210200Y0277634D01*
X0210200Y0276036D02*
X0209800Y0276036D01*
X0209800Y0274437D02*
X0210200Y0274437D01*
X0186925Y0282430D02*
X0183075Y0282430D01*
X0184673Y0280831D02*
X0185326Y0280831D01*
X0185000Y0279233D02*
X0185000Y0279233D01*
X0185000Y0277634D02*
X0185000Y0277634D01*
X0185000Y0273434D02*
X0180000Y0278434D01*
X0176925Y0282430D02*
X0173075Y0282430D01*
X0174673Y0280831D02*
X0175326Y0280831D01*
X0175000Y0279233D02*
X0175000Y0279233D01*
X0175000Y0277634D02*
X0175000Y0277634D01*
X0174673Y0276036D02*
X0175327Y0276036D01*
X0176925Y0274437D02*
X0173075Y0274437D01*
X0172666Y0272839D02*
X0177334Y0272839D01*
X0175735Y0271240D02*
X0174265Y0271240D01*
X0175000Y0269642D02*
X0175000Y0269642D01*
X0175000Y0268043D02*
X0175000Y0268043D01*
X0175000Y0266444D02*
X0175000Y0266444D01*
X0173483Y0264846D02*
X0176517Y0264846D01*
X0173993Y0263247D02*
X0172800Y0263247D01*
X0173299Y0261649D02*
X0173551Y0261649D01*
X0160250Y0226482D02*
X0290200Y0226482D01*
X0255000Y0277634D02*
X0255000Y0277634D01*
X0255000Y0279233D02*
X0255000Y0279233D01*
X0255326Y0280831D02*
X0254673Y0280831D01*
X0253075Y0282430D02*
X0256925Y0282430D01*
X0162161Y0224883D02*
X0160250Y0224883D01*
X0160250Y0223285D02*
X0160778Y0223285D01*
X0135327Y0276036D02*
X0134390Y0276036D01*
X0134800Y0277634D02*
X0135000Y0277634D01*
X0135000Y0279233D02*
X0134800Y0279233D01*
X0134391Y0280831D02*
X0135326Y0280831D01*
D21*
X0080000Y0278434D02*
X0070000Y0278434D01*
X0070000Y0275934D01*
X0062500Y0268434D01*
X0062500Y0260934D01*
D22*
X0062500Y0245934D01*
X0062500Y0240934D01*
X0075000Y0228434D01*
X0097500Y0228434D01*
X0102500Y0223434D01*
X0102500Y0190934D01*
X0122250Y0172434D01*
X0137000Y0172434D01*
X0142500Y0163434D02*
X0149500Y0170434D01*
X0149500Y0191434D01*
X0145000Y0195934D01*
X0156250Y0168434D02*
X0145000Y0157184D01*
X0097972Y0157184D01*
X0091250Y0150461D01*
X0091250Y0119684D01*
X0082500Y0110934D01*
X0082500Y0100734D01*
X0082500Y0098434D01*
X0100512Y0133434D02*
X0100512Y0146445D01*
X0105000Y0150934D01*
X0089000Y0172434D02*
X0087500Y0173434D01*
X0055000Y0173434D01*
X0055000Y0163434D02*
X0142500Y0163434D01*
X0156250Y0168434D02*
X0156250Y0230934D01*
X0215000Y0230934D01*
X0220000Y0235934D01*
X0220000Y0238434D01*
X0156250Y0230934D02*
X0150000Y0237184D01*
X0150000Y0238434D01*
X0089000Y0219434D02*
X0089000Y0206184D01*
X0076250Y0193434D01*
X0055000Y0193434D01*
X0139488Y0133434D02*
X0140000Y0132922D01*
X0140000Y0115934D01*
X0127500Y0103434D01*
X0127500Y0100734D01*
D23*
X0140000Y0115934D03*
X0105000Y0150934D03*
X0091250Y0119684D03*
X0110000Y0193434D03*
X0110000Y0200934D03*
X0120000Y0223434D03*
X0145000Y0208434D03*
X0077500Y0208434D03*
X0062500Y0260934D03*
D24*
X0075000Y0220934D03*
X0157500Y0158434D03*
X0157500Y0110934D03*
X0157500Y0090934D03*
X0157500Y0070934D03*
X0137500Y0070934D03*
X0072500Y0070934D03*
X0205000Y0243434D03*
X0260000Y0229684D03*
D25*
X0279197Y0273374D03*
X0050882Y0273402D03*
X0050883Y0080489D03*
M02*
