G75*
%MOIN*%
%OFA0B0*%
%FSLAX25Y25*%
%IPPOS*%
%LPD*%
%AMOC8*
5,1,8,0,0,1.08239X$1,22.5*
%
%ADD10C,0.00400*%
%ADD11C,0.00800*%
%ADD12R,0.09646X0.02657*%
%ADD13C,0.01000*%
%ADD14R,0.08268X0.01181*%
%ADD15C,0.00500*%
%ADD16C,0.00600*%
%ADD17C,0.00300*%
%ADD18R,0.02400X0.06200*%
%ADD19R,0.02657X0.09646*%
D10*
X0070967Y0089426D02*
X0070200Y0090193D01*
X0070200Y0091728D01*
X0070967Y0092495D01*
X0070200Y0094030D02*
X0073269Y0097099D01*
X0074037Y0097099D01*
X0074804Y0096332D01*
X0074804Y0094797D01*
X0074037Y0094030D01*
X0074037Y0092495D02*
X0074804Y0091728D01*
X0074804Y0090193D01*
X0074037Y0089426D01*
X0070967Y0089426D01*
X0070200Y0094030D02*
X0070200Y0097099D01*
X0088467Y0136134D02*
X0087700Y0136901D01*
X0087700Y0138436D01*
X0088467Y0139203D01*
X0088467Y0140737D02*
X0087700Y0141505D01*
X0087700Y0143039D01*
X0088467Y0143807D01*
X0089235Y0143807D01*
X0090002Y0143039D01*
X0090002Y0142272D01*
X0090002Y0143039D02*
X0090769Y0143807D01*
X0091537Y0143807D01*
X0092304Y0143039D01*
X0092304Y0141505D01*
X0091537Y0140737D01*
X0091537Y0139203D02*
X0092304Y0138436D01*
X0092304Y0136901D01*
X0091537Y0136134D01*
X0088467Y0136134D01*
X0122700Y0140193D02*
X0122700Y0141728D01*
X0123467Y0142495D01*
X0123467Y0144030D02*
X0122700Y0144797D01*
X0122700Y0146332D01*
X0123467Y0147099D01*
X0125002Y0147099D01*
X0125769Y0146332D01*
X0125769Y0145564D01*
X0125002Y0144030D01*
X0127304Y0144030D01*
X0127304Y0147099D01*
X0126537Y0142495D02*
X0127304Y0141728D01*
X0127304Y0140193D01*
X0126537Y0139426D01*
X0123467Y0139426D01*
X0122700Y0140193D01*
X0127700Y0186134D02*
X0127700Y0188436D01*
X0128467Y0189203D01*
X0131537Y0189203D01*
X0132304Y0188436D01*
X0132304Y0186134D01*
X0127700Y0186134D01*
X0127700Y0190737D02*
X0128467Y0190737D01*
X0131537Y0193807D01*
X0132304Y0193807D01*
X0132304Y0190737D01*
X0122473Y0213634D02*
X0122473Y0218237D01*
X0120939Y0218237D02*
X0124008Y0218237D01*
X0119404Y0216703D02*
X0117869Y0218237D01*
X0117869Y0213634D01*
X0116335Y0213634D02*
X0119404Y0213634D01*
X0101112Y0195737D02*
X0098810Y0195737D01*
X0098043Y0194970D01*
X0098043Y0193436D01*
X0098810Y0192668D01*
X0101112Y0192668D01*
X0101112Y0191134D02*
X0101112Y0195737D01*
X0099577Y0192668D02*
X0098043Y0191134D01*
X0096508Y0191134D02*
X0093439Y0191134D01*
X0094973Y0191134D02*
X0094973Y0195737D01*
X0096508Y0194203D01*
X0091904Y0194203D02*
X0090369Y0195737D01*
X0090369Y0191134D01*
X0088835Y0191134D02*
X0091904Y0191134D01*
X0072077Y0218634D02*
X0070543Y0218634D01*
X0071310Y0218634D02*
X0071310Y0223237D01*
X0072077Y0223237D02*
X0070543Y0223237D01*
X0069008Y0222470D02*
X0069008Y0219401D01*
X0068241Y0218634D01*
X0066706Y0218634D01*
X0065939Y0219401D01*
X0064404Y0218634D02*
X0061335Y0218634D01*
X0062869Y0218634D02*
X0062869Y0223237D01*
X0064404Y0221703D01*
X0065939Y0222470D02*
X0066706Y0223237D01*
X0068241Y0223237D01*
X0069008Y0222470D01*
X0059804Y0225218D02*
X0055200Y0225218D01*
X0055200Y0228287D01*
X0055200Y0229822D02*
X0059804Y0229822D01*
X0058269Y0231356D01*
X0059804Y0232891D01*
X0055200Y0232891D01*
X0055200Y0234426D02*
X0055967Y0234426D01*
X0059037Y0237495D01*
X0059804Y0237495D01*
X0059804Y0234426D01*
X0059804Y0239030D02*
X0057502Y0239030D01*
X0058269Y0240564D01*
X0058269Y0241332D01*
X0057502Y0242099D01*
X0055967Y0242099D01*
X0055200Y0241332D01*
X0055200Y0239797D01*
X0055967Y0239030D01*
X0059804Y0239030D02*
X0059804Y0242099D01*
X0051508Y0246901D02*
X0051508Y0249970D01*
X0050741Y0250737D01*
X0049206Y0250737D01*
X0048439Y0249970D01*
X0046904Y0248436D02*
X0044602Y0248436D01*
X0043835Y0247668D01*
X0043835Y0246901D01*
X0044602Y0246134D01*
X0046137Y0246134D01*
X0046904Y0246901D01*
X0046904Y0248436D01*
X0045369Y0249970D01*
X0043835Y0250737D01*
X0048439Y0246901D02*
X0049206Y0246134D01*
X0050741Y0246134D01*
X0051508Y0246901D01*
X0116335Y0246901D02*
X0117102Y0246134D01*
X0118637Y0246134D01*
X0119404Y0246901D01*
X0120939Y0246134D02*
X0124008Y0246134D01*
X0125543Y0246134D02*
X0127077Y0247668D01*
X0126310Y0247668D02*
X0128612Y0247668D01*
X0128612Y0246134D02*
X0128612Y0250737D01*
X0126310Y0250737D01*
X0125543Y0249970D01*
X0125543Y0248436D01*
X0126310Y0247668D01*
X0124008Y0249203D02*
X0122473Y0250737D01*
X0122473Y0246134D01*
X0119404Y0249970D02*
X0118637Y0250737D01*
X0117102Y0250737D01*
X0116335Y0249970D01*
X0116335Y0249203D01*
X0117102Y0248436D01*
X0116335Y0247668D01*
X0116335Y0246901D01*
X0117102Y0248436D02*
X0117869Y0248436D01*
X0133627Y0250436D02*
X0136696Y0250436D01*
X0134394Y0252737D01*
X0134394Y0248134D01*
X0138231Y0248901D02*
X0138231Y0251970D01*
X0138998Y0252737D01*
X0141300Y0252737D01*
X0141300Y0248134D01*
X0138998Y0248134D01*
X0138231Y0248901D01*
X0169627Y0258436D02*
X0172696Y0258436D01*
X0170394Y0260737D01*
X0170394Y0256134D01*
X0174231Y0256134D02*
X0175765Y0257668D01*
X0174998Y0257668D02*
X0177300Y0257668D01*
X0177300Y0256134D02*
X0177300Y0260737D01*
X0174998Y0260737D01*
X0174231Y0259970D01*
X0174231Y0258436D01*
X0174998Y0257668D01*
X0201127Y0252737D02*
X0204196Y0252737D01*
X0204196Y0250436D01*
X0202661Y0251203D01*
X0201894Y0251203D01*
X0201127Y0250436D01*
X0201127Y0248901D01*
X0201894Y0248134D01*
X0203429Y0248134D01*
X0204196Y0248901D01*
X0205731Y0248901D02*
X0205731Y0251970D01*
X0206498Y0252737D01*
X0208800Y0252737D01*
X0208800Y0248134D01*
X0206498Y0248134D01*
X0205731Y0248901D01*
X0239627Y0256901D02*
X0240394Y0256134D01*
X0241929Y0256134D01*
X0242696Y0256901D01*
X0242696Y0258436D02*
X0241161Y0259203D01*
X0240394Y0259203D01*
X0239627Y0258436D01*
X0239627Y0256901D01*
X0242696Y0258436D02*
X0242696Y0260737D01*
X0239627Y0260737D01*
X0244231Y0259970D02*
X0244231Y0258436D01*
X0244998Y0257668D01*
X0247300Y0257668D01*
X0247300Y0256134D02*
X0247300Y0260737D01*
X0244998Y0260737D01*
X0244231Y0259970D01*
X0245765Y0257668D02*
X0244231Y0256134D01*
X0054800Y0155737D02*
X0054800Y0151134D01*
X0052498Y0151134D01*
X0051731Y0151901D01*
X0051731Y0154970D01*
X0052498Y0155737D01*
X0054800Y0155737D01*
X0050196Y0154970D02*
X0049429Y0155737D01*
X0047894Y0155737D01*
X0047127Y0154970D01*
X0047127Y0154203D01*
X0047894Y0153436D01*
X0047127Y0152668D01*
X0047127Y0151901D01*
X0047894Y0151134D01*
X0049429Y0151134D01*
X0050196Y0151901D01*
X0048661Y0153436D02*
X0047894Y0153436D01*
D11*
X0063465Y0158552D02*
X0071575Y0158552D01*
X0071575Y0148315D02*
X0063465Y0148315D01*
X0114882Y0191859D02*
X0114882Y0199969D01*
X0125118Y0199969D02*
X0125118Y0191859D01*
X0140531Y0256465D02*
X0140531Y0260402D01*
X0144469Y0258434D01*
X0140531Y0256465D01*
X0210531Y0256465D02*
X0210531Y0260402D01*
X0214469Y0258434D01*
X0210531Y0256465D01*
X0132800Y0098422D02*
X0132800Y0093484D01*
X0132800Y0095953D02*
X0140206Y0095953D01*
X0137738Y0093484D01*
X0140206Y0090871D02*
X0134034Y0090871D01*
X0132800Y0089637D01*
X0132800Y0087168D01*
X0134034Y0085934D01*
X0140206Y0085934D01*
D12*
X0120000Y0193069D03*
D13*
X0107756Y0151130D02*
X0102244Y0151130D01*
X0105000Y0146209D01*
X0107756Y0151130D01*
D14*
X0105000Y0146012D03*
D15*
X0113404Y0153290D02*
X0113404Y0155542D01*
X0114154Y0156292D01*
X0117157Y0156292D01*
X0117907Y0155542D01*
X0117907Y0153290D01*
X0113404Y0153290D01*
X0114154Y0157894D02*
X0113404Y0158644D01*
X0113404Y0160146D01*
X0114154Y0160896D01*
X0114905Y0160896D01*
X0115655Y0160146D01*
X0115655Y0157894D01*
X0114154Y0157894D01*
X0115655Y0157894D02*
X0117157Y0159395D01*
X0117907Y0160896D01*
X0141201Y0147095D02*
X0141201Y0144339D01*
X0153799Y0144339D01*
X0153799Y0147095D01*
X0149075Y0147095D01*
X0149073Y0147016D01*
X0149067Y0146938D01*
X0149057Y0146860D01*
X0149044Y0146783D01*
X0149026Y0146706D01*
X0149005Y0146631D01*
X0148980Y0146556D01*
X0148951Y0146483D01*
X0148919Y0146412D01*
X0148883Y0146342D01*
X0148844Y0146274D01*
X0148801Y0146208D01*
X0148755Y0146144D01*
X0148707Y0146083D01*
X0148655Y0146024D01*
X0148600Y0145968D01*
X0148542Y0145914D01*
X0148482Y0145864D01*
X0148419Y0145816D01*
X0148355Y0145772D01*
X0148288Y0145731D01*
X0148219Y0145693D01*
X0148148Y0145659D01*
X0148075Y0145629D01*
X0148002Y0145602D01*
X0147927Y0145579D01*
X0147850Y0145559D01*
X0147773Y0145544D01*
X0147696Y0145532D01*
X0147618Y0145524D01*
X0147539Y0145520D01*
X0147461Y0145520D01*
X0147382Y0145524D01*
X0147304Y0145532D01*
X0147227Y0145544D01*
X0147150Y0145559D01*
X0147073Y0145579D01*
X0146998Y0145602D01*
X0146925Y0145629D01*
X0146852Y0145659D01*
X0146781Y0145693D01*
X0146713Y0145731D01*
X0146645Y0145772D01*
X0146581Y0145816D01*
X0146518Y0145864D01*
X0146458Y0145914D01*
X0146400Y0145968D01*
X0146345Y0146024D01*
X0146293Y0146083D01*
X0146245Y0146144D01*
X0146199Y0146208D01*
X0146156Y0146274D01*
X0146117Y0146342D01*
X0146081Y0146412D01*
X0146049Y0146483D01*
X0146020Y0146556D01*
X0145995Y0146631D01*
X0145974Y0146706D01*
X0145956Y0146783D01*
X0145943Y0146860D01*
X0145933Y0146938D01*
X0145927Y0147016D01*
X0145925Y0147095D01*
X0141201Y0147095D01*
X0141201Y0144339D02*
X0141201Y0132528D01*
X0153799Y0132528D01*
X0153799Y0144339D01*
X0153799Y0132528D02*
X0153799Y0129772D01*
X0149075Y0129772D01*
X0149073Y0129851D01*
X0149067Y0129929D01*
X0149057Y0130007D01*
X0149044Y0130084D01*
X0149026Y0130161D01*
X0149005Y0130236D01*
X0148980Y0130311D01*
X0148951Y0130384D01*
X0148919Y0130455D01*
X0148883Y0130525D01*
X0148844Y0130593D01*
X0148801Y0130659D01*
X0148755Y0130723D01*
X0148707Y0130784D01*
X0148655Y0130843D01*
X0148600Y0130899D01*
X0148542Y0130953D01*
X0148482Y0131003D01*
X0148419Y0131051D01*
X0148355Y0131095D01*
X0148288Y0131136D01*
X0148219Y0131174D01*
X0148148Y0131208D01*
X0148075Y0131238D01*
X0148002Y0131265D01*
X0147927Y0131288D01*
X0147850Y0131308D01*
X0147773Y0131323D01*
X0147696Y0131335D01*
X0147618Y0131343D01*
X0147539Y0131347D01*
X0147461Y0131347D01*
X0147382Y0131343D01*
X0147304Y0131335D01*
X0147227Y0131323D01*
X0147150Y0131308D01*
X0147073Y0131288D01*
X0146998Y0131265D01*
X0146925Y0131238D01*
X0146852Y0131208D01*
X0146781Y0131174D01*
X0146713Y0131136D01*
X0146645Y0131095D01*
X0146581Y0131051D01*
X0146518Y0131003D01*
X0146458Y0130953D01*
X0146400Y0130899D01*
X0146345Y0130843D01*
X0146293Y0130784D01*
X0146245Y0130723D01*
X0146199Y0130659D01*
X0146156Y0130593D01*
X0146117Y0130525D01*
X0146081Y0130455D01*
X0146049Y0130384D01*
X0146020Y0130311D01*
X0145995Y0130236D01*
X0145974Y0130161D01*
X0145956Y0130084D01*
X0145943Y0130007D01*
X0145933Y0129929D01*
X0145927Y0129851D01*
X0145925Y0129772D01*
X0141201Y0129772D01*
X0141201Y0132528D01*
X0070000Y0223434D02*
X0050000Y0223434D01*
X0050000Y0248434D01*
X0070000Y0248434D01*
X0070000Y0223434D01*
X0062500Y0243434D02*
X0062502Y0243533D01*
X0062508Y0243633D01*
X0062518Y0243732D01*
X0062532Y0243830D01*
X0062549Y0243928D01*
X0062571Y0244025D01*
X0062596Y0244121D01*
X0062625Y0244216D01*
X0062658Y0244310D01*
X0062695Y0244402D01*
X0062735Y0244493D01*
X0062779Y0244582D01*
X0062827Y0244670D01*
X0062878Y0244755D01*
X0062932Y0244838D01*
X0062989Y0244920D01*
X0063050Y0244998D01*
X0063114Y0245075D01*
X0063180Y0245148D01*
X0063250Y0245219D01*
X0063322Y0245287D01*
X0063397Y0245353D01*
X0063475Y0245415D01*
X0063555Y0245474D01*
X0063637Y0245530D01*
X0063721Y0245582D01*
X0063808Y0245631D01*
X0063896Y0245677D01*
X0063986Y0245719D01*
X0064078Y0245758D01*
X0064171Y0245793D01*
X0064265Y0245824D01*
X0064361Y0245851D01*
X0064458Y0245874D01*
X0064555Y0245894D01*
X0064653Y0245910D01*
X0064752Y0245922D01*
X0064851Y0245930D01*
X0064950Y0245934D01*
X0065050Y0245934D01*
X0065149Y0245930D01*
X0065248Y0245922D01*
X0065347Y0245910D01*
X0065445Y0245894D01*
X0065542Y0245874D01*
X0065639Y0245851D01*
X0065735Y0245824D01*
X0065829Y0245793D01*
X0065922Y0245758D01*
X0066014Y0245719D01*
X0066104Y0245677D01*
X0066192Y0245631D01*
X0066279Y0245582D01*
X0066363Y0245530D01*
X0066445Y0245474D01*
X0066525Y0245415D01*
X0066603Y0245353D01*
X0066678Y0245287D01*
X0066750Y0245219D01*
X0066820Y0245148D01*
X0066886Y0245075D01*
X0066950Y0244998D01*
X0067011Y0244920D01*
X0067068Y0244838D01*
X0067122Y0244755D01*
X0067173Y0244670D01*
X0067221Y0244582D01*
X0067265Y0244493D01*
X0067305Y0244402D01*
X0067342Y0244310D01*
X0067375Y0244216D01*
X0067404Y0244121D01*
X0067429Y0244025D01*
X0067451Y0243928D01*
X0067468Y0243830D01*
X0067482Y0243732D01*
X0067492Y0243633D01*
X0067498Y0243533D01*
X0067500Y0243434D01*
X0067498Y0243335D01*
X0067492Y0243235D01*
X0067482Y0243136D01*
X0067468Y0243038D01*
X0067451Y0242940D01*
X0067429Y0242843D01*
X0067404Y0242747D01*
X0067375Y0242652D01*
X0067342Y0242558D01*
X0067305Y0242466D01*
X0067265Y0242375D01*
X0067221Y0242286D01*
X0067173Y0242198D01*
X0067122Y0242113D01*
X0067068Y0242030D01*
X0067011Y0241948D01*
X0066950Y0241870D01*
X0066886Y0241793D01*
X0066820Y0241720D01*
X0066750Y0241649D01*
X0066678Y0241581D01*
X0066603Y0241515D01*
X0066525Y0241453D01*
X0066445Y0241394D01*
X0066363Y0241338D01*
X0066279Y0241286D01*
X0066192Y0241237D01*
X0066104Y0241191D01*
X0066014Y0241149D01*
X0065922Y0241110D01*
X0065829Y0241075D01*
X0065735Y0241044D01*
X0065639Y0241017D01*
X0065542Y0240994D01*
X0065445Y0240974D01*
X0065347Y0240958D01*
X0065248Y0240946D01*
X0065149Y0240938D01*
X0065050Y0240934D01*
X0064950Y0240934D01*
X0064851Y0240938D01*
X0064752Y0240946D01*
X0064653Y0240958D01*
X0064555Y0240974D01*
X0064458Y0240994D01*
X0064361Y0241017D01*
X0064265Y0241044D01*
X0064171Y0241075D01*
X0064078Y0241110D01*
X0063986Y0241149D01*
X0063896Y0241191D01*
X0063808Y0241237D01*
X0063721Y0241286D01*
X0063637Y0241338D01*
X0063555Y0241394D01*
X0063475Y0241453D01*
X0063397Y0241515D01*
X0063322Y0241581D01*
X0063250Y0241649D01*
X0063180Y0241720D01*
X0063114Y0241793D01*
X0063050Y0241870D01*
X0062989Y0241948D01*
X0062932Y0242030D01*
X0062878Y0242113D01*
X0062827Y0242198D01*
X0062779Y0242286D01*
X0062735Y0242375D01*
X0062695Y0242466D01*
X0062658Y0242558D01*
X0062625Y0242652D01*
X0062596Y0242747D01*
X0062571Y0242843D01*
X0062549Y0242940D01*
X0062532Y0243038D01*
X0062518Y0243136D01*
X0062508Y0243235D01*
X0062502Y0243335D01*
X0062500Y0243434D01*
D16*
X0094700Y0120134D02*
X0094700Y0110334D01*
X0098500Y0110334D02*
X0098500Y0120134D01*
X0101400Y0120134D02*
X0101400Y0110334D01*
X0105200Y0110334D02*
X0105200Y0120134D01*
X0108100Y0120134D02*
X0108100Y0110334D01*
X0111900Y0110334D02*
X0111900Y0120134D01*
X0114800Y0120134D02*
X0114800Y0110334D01*
X0118600Y0110334D02*
X0118600Y0120134D01*
X0121500Y0120134D02*
X0121500Y0110334D01*
X0125300Y0110334D02*
X0125300Y0120134D01*
D17*
X0091786Y0125064D02*
X0088650Y0128200D01*
X0090218Y0128200D02*
X0090218Y0125064D01*
X0088650Y0125064D02*
X0091786Y0128200D01*
X0091786Y0126632D02*
X0088650Y0126632D01*
D18*
X0144700Y0258434D03*
X0214700Y0258434D03*
D19*
X0070364Y0153434D03*
M02*
