G04 ================== begin FILE IDENTIFICATION RECORD ==================*
G04 Layout Name:  D:/Dokumenty/buk/kati/board/Kati.brd*
G04 Film Name:    Soldermask_TOP*
G04 File Format:  Gerber RS274X*
G04 File Origin:  Cadence Allegro 16.6-S026*
G04 Origin Date:  Fri Oct 09 12:06:39 2015*
G04 *
G04 Layer:  VIA CLASS/SOLDERMASK_TOP*
G04 Layer:  PIN/SOLDERMASK_TOP*
G04 Layer:  PACKAGE GEOMETRY/SOLDERMASK_TOP*
G04 Layer:  DRC ERROR CLASS/SOLDERMASK_TOP*
G04 Layer:  BOARD GEOMETRY/OUTLINE*
G04 Layer:  BOARD GEOMETRY/SOLDERMASK_TOP*
G04 *
G04 Offset:    (0.0000 0.0000)*
G04 Mirror:    No*
G04 Mode:      Positive*
G04 Rotation:  0*
G04 FullContactRelief:  No*
G04 UndefLineWidth:     0.5000*
G04 ================== end FILE IDENTIFICATION RECORD ====================*
%FSLAX25Y25*MOMM*%
%IR0*IPPOS*OFA0.00000B0.00000*MIA0B0*SFA1.00000B1.00000*%
%ADD10C,6.2*%
%ADD15C,1.1176*%
%ADD23C,5.715*%
%ADD19C,2.1844*%
%ADD12C,2.0828*%
%ADD17C,1.778*%
%ADD21C,1.6764*%
%ADD14C,3.9624*%
%ADD18C,2.4892*%
%ADD22R,2.1844X2.1844*%
%ADD13R,2.0828X2.0828*%
%ADD16R,1.778X1.778*%
%ADD20R,1.6764X1.6764*%
%ADD11C,3.4798*%
%ADD24C,.5*%
G75*
%LPD*%
G75*
G54D10*
X-2900000Y-2450000D03*
Y2450000D03*
X2900000Y-2450000D03*
Y2450000D03*
G54D11*
X-2468500Y0D03*
G54D20*
X-1143000Y762000D03*
X2603500Y-571500D03*
G54D21*
X444500Y-1079500D03*
Y-571500D03*
X-254000Y762000D03*
X2349500Y-571500D03*
G54D12*
X-1778000Y-1587500D03*
X-2032000D03*
X-1016000D03*
X-1270000D03*
X-1524000D03*
Y-1270000D03*
Y-1016000D03*
Y1460500D03*
Y762000D03*
Y1714500D03*
X-254000Y-1587500D03*
X-508000D03*
X-762000D03*
X1079500D03*
X825500D03*
X571500D03*
X1841500D03*
X1587500D03*
X1333500D03*
X2349500D03*
X2095500D03*
X2540000Y1143000D03*
Y1397000D03*
Y1651000D03*
G54D13*
X-2286000Y-1587500D03*
X-1524000Y-762000D03*
Y1016000D03*
Y1968500D03*
X317500Y-1587500D03*
X2540000Y1905000D03*
G54D22*
X127000Y1206500D03*
G54D14*
X-1868500Y0D03*
G54D23*
X1270000Y1460500D03*
G54D24*
G01X3250000Y2500000D02*
Y-2500000D01*
G02X2950000Y-2800000I-300000J0D01*
G01X-2950000D01*
G02X-3250000Y-2500000I0J300000D01*
G01Y2500000D01*
G02X-2950000Y2800000I300000J0D01*
G01X2950000D01*
G02X3250000Y2500000I0J-300000D01*
G54D15*
X-2222500Y2032000D03*
X-2095500D03*
X-1968500D03*
X-825500Y444500D03*
X-698500D03*
X-762000Y952500D03*
X-635000D03*
X-889000Y1968500D03*
X-952500Y1524000D03*
X-508000Y1651000D03*
X63500Y381000D03*
X-63500D03*
X63500Y889000D03*
X-63500D03*
X-254000Y2032000D03*
X63500Y1524000D03*
X-254000D03*
X762000Y317500D03*
Y444500D03*
X444500Y190500D03*
X571500D03*
X698500D03*
X508000Y889000D03*
X635000D03*
X762000D03*
X508000Y1524000D03*
X635000D03*
X762000D03*
X1841500Y-698500D03*
X1905000Y-825500D03*
X1651000Y1143000D03*
X1524000Y1142990D03*
X2032000Y-825500D03*
X1968500Y-698500D03*
X2159000Y-825500D03*
X2095500Y-698500D03*
X2222500D03*
G54D16*
X-2413000Y2323000D03*
X2794000Y381000D03*
G54D17*
X-2159000Y2323000D03*
X-1905000D03*
Y2577000D03*
X-2159000D03*
X-2413000D03*
X-1143000Y1651000D03*
Y1968500D03*
X-1651000Y2323000D03*
X-1397000D03*
X-1143000D03*
Y2577000D03*
X-1397000D03*
X-1651000D03*
X-889000Y2323000D03*
X-635000D03*
X-381000D03*
Y2577000D03*
X-635000D03*
X-889000D03*
X-127000Y1651000D03*
Y1968500D03*
X254000Y1651000D03*
Y2032000D03*
Y1841500D03*
X-127000Y2323000D03*
X127000D03*
X381000D03*
Y2577000D03*
X127000D03*
X-127000D03*
X635000Y2323000D03*
X889000D03*
X1143000D03*
Y2577000D03*
X889000D03*
X635000D03*
X1397000Y2323000D03*
X1651000D03*
X1905000D03*
Y2577000D03*
X1651000D03*
X1397000D03*
X2286000Y381000D03*
X2159000Y2323000D03*
X2413000D03*
Y2577000D03*
X2159000D03*
G54D18*
X-1108000Y-1049000D03*
Y181000D03*
X-508000Y381000D03*
X92000Y-1049000D03*
Y181000D03*
G54D19*
X-1143000Y1206500D03*
X1270000Y-571500D03*
X1016000D03*
X1524000D03*
M02*
