G04 ================== begin FILE IDENTIFICATION RECORD ==================*
G04 Layout Name:  D:/Dokumenty/buk/kati/board/Kati.brd*
G04 Film Name:    TOP*
G04 File Format:  Gerber RS274X*
G04 File Origin:  Cadence Allegro 16.6-S026*
G04 Origin Date:  Fri Oct 09 12:06:39 2015*
G04 *
G04 Layer:  ETCH/TOP*
G04 Layer:  PIN/TOP*
G04 Layer:  VIA CLASS/TOP*
G04 *
G04 Offset:    (0.0000 0.0000)*
G04 Mirror:    No*
G04 Mode:      Positive*
G04 Rotation:  0*
G04 FullContactRelief:  No*
G04 UndefLineWidth:     0.0000*
G04 ================== end FILE IDENTIFICATION RECORD ====================*
%FSLAX25Y25*MOMM*%
%IR0*IPPOS*OFA0.00000B0.00000*MIA0B0*SFA1.00000B1.00000*%
%ADD15C,.6096*%
%ADD21C,1.524*%
%ADD22C,1.4224*%
%ADD18C,2.2352*%
%ADD10C,2.75*%
%ADD24C,5.461*%
%ADD19C,1.9304*%
%ADD25R,1.524X1.524*%
%ADD20R,1.4224X1.4224*%
%ADD11C,3.2258*%
%ADD14C,3.7084*%
%ADD23R,1.9304X1.9304*%
%ADD17C,1.6764*%
%ADD12C,1.8288*%
%ADD16R,1.6764X1.6764*%
%ADD13R,1.8288X1.8288*%
%ADD26C,.635*%
%ADD27C,.762*%
%ADD28C,.3175*%
%ADD33C,6.2*%
%ADD29C,4.7502*%
%ADD30C,5.2328*%
%ADD32R,3.0484X3.0484*%
%ADD31C,2.9468*%
G75*
%LPD*%
G75*
G36*
G01X-2950000Y-2800000D02*
G02X-3250000Y-2500000I0J300000D01*
G01Y2500000D01*
G02X-2950000Y2800000I300000J0D01*
G01X2950000D01*
G02X3250000Y2500000I0J-300000D01*
G01Y-2500000D01*
G02X2950000Y-2800000I-300000J0D01*
G01X-2950000D01*
G37*
%LPC*%
G75*
G36*
G01X1150050Y-695810D02*
G03X1135950I-7050J-7308D01*
G02Y-447190I-119950J124310D01*
G03X1150050I7050J7308D01*
G02X1389950I119950J-124310D01*
G03X1404050I7050J7308D01*
G02Y-695810I119950J-124310D01*
G03X1389950I-7050J-7308D01*
G02X1150050I-119950J124310D01*
G37*
G36*
G01X1453240Y-1470150D02*
G03X1467760I7260J7112D01*
G02X1707240I119740J-117350D01*
G03X1721760I7260J7112D01*
G02X1961240I119740J-117350D01*
G03X1975760I7260J7112D01*
G02X2215240I119740J-117350D01*
G03X2229760I7260J7112D01*
G02Y-1704850I119740J-117350D01*
G03X2215240I-7260J-7112D01*
G02X1975760I-119740J117350D01*
G03X1961240I-7260J-7112D01*
G02X1721760I-119740J117350D01*
G03X1707240I-7260J-7112D01*
G02X1467760I-119740J117350D01*
G03X1453240I-7260J-7112D01*
G02X1213760I-119740J117350D01*
G03X1199240I-7260J-7112D01*
G02X959760I-119740J117350D01*
G03X945240I-7260J-7112D01*
G02X705760I-119740J117350D01*
G03X691240I-7260J-7112D01*
G02X499670Y-1738990I-119740J117351D01*
G03X485160Y-1748170I-4349J-9183D01*
G01Y-1755160D01*
X149840D01*
Y-1419840D01*
X485160D01*
Y-1426830D01*
G03X499670Y-1436010I10161J3D01*
G02X691240Y-1470150I71830J-151491D01*
G03X705760I7260J7112D01*
G02X945240I119740J-117350D01*
G03X959760I7260J7112D01*
G02X1199240I119740J-117350D01*
G03X1213760I7260J7112D01*
G02X1453240I119740J-117350D01*
G37*
G36*
G01X-1168350Y-1806600D02*
X-1435150D01*
X-1490040Y-1751710D01*
X-1492680Y-1752210D01*
G02X-1643740Y-1704850I-31315J164709D01*
G03X-1658260I-7260J-7112D01*
G02X-1897740I-119740J117350D01*
G03X-1912260I-7260J-7112D01*
G02X-2103830Y-1738990I-119740J117351D01*
G03X-2118340Y-1748170I-4349J-9183D01*
G01Y-1755160D01*
X-2453660D01*
Y-1419840D01*
X-2118340D01*
Y-1426830D01*
G03X-2103830Y-1436010I10161J3D01*
G02X-2000680Y-1422790I71837J-151489D01*
G01X-1998040Y-1423290D01*
X-1879650Y-1304900D01*
X-1700090D01*
G03X-1690030Y-1293330I-1J10159D01*
G02X-1641350Y-1150260I166029J23325D01*
G03Y-1135740I-7112J7260D01*
G02X-1675490Y-944170I117351J119740D01*
G03X-1684670Y-929660I-9183J4349D01*
G01X-1691660D01*
Y-594340D01*
X-1356340D01*
Y-929660D01*
X-1363330D01*
G03X-1372510Y-944170I3J-10161D01*
G02X-1406650Y-1135740I-151491J-71830D01*
G03Y-1150260I7112J-7260D01*
G02X-1357970Y-1293330I-117349J-119745D01*
G03X-1347910Y-1304900I10061J-1411D01*
G01X-1308150D01*
X-1218690Y-1215450D01*
G03X-1219830Y-1200090I-7185J7189D01*
G02X-937000Y-970920I111832J151095D01*
G03X-917600Y-966700I9241J4219D01*
G01Y98700D01*
G03X-937000Y102920I-10159J1D01*
G02Y259080I-171000J78080D01*
G03X-917600Y263300I9241J4219D01*
G01Y390630D01*
G02X-928300Y415900I92090J53894D01*
G01X-2006660D01*
X-2314600Y723840D01*
Y1978130D01*
G02X-2159000Y2117750I92102J53871D01*
G02X-2032000I63500J-85750D01*
G02X-1876400Y1978130I63498J-85749D01*
G01Y800140D01*
X-1803360Y727100D01*
X-1700090D01*
G03X-1690030Y738670I-1J10159D01*
G02X-1675490Y833830I166029J23322D01*
G03X-1684670Y848340I-9183J4349D01*
G01X-1691660D01*
Y1183660D01*
X-1441470D01*
Y1298070D01*
G03X-1455760Y1307350I-10158J0D01*
G02X-1641350Y1580240I-68239J153145D01*
G03Y1594760I-7112J7260D01*
G02X-1675490Y1786330I117351J119740D01*
G03X-1684670Y1800840I-9183J4349D01*
G01X-1691660D01*
Y2136160D01*
X-1356340D01*
Y2059380D01*
G03X-1339000Y2052200I10158J3D01*
G01X-1314720Y2076470D01*
X-1250580D01*
G02X-1000360Y2022210I107580J-107972D01*
G03X-982000Y2020810I9507J3584D01*
G02X-796900Y1914630I93001J-52304D01*
G01Y1055150D01*
X-791130D01*
X-790460Y1055330D01*
G02X-790310Y1055380I33770J-101060D01*
G01X-789020Y1055730D01*
X-600100Y1244650D01*
Y1597130D01*
G02X-485410Y1755280I92102J53870D01*
G03X-473100Y1765210I2150J9930D01*
G01Y1943150D01*
X-357230Y2059020D01*
X-356880Y2060310D01*
G02X-181930Y2110680I102877J-28310D01*
G02X0Y1884220I54931J-142179D01*
G01Y1758970D01*
X108420D01*
G03X117510Y1773650I-6J10158D01*
G02X135010Y1936750I136489J67844D01*
G02X153160Y2146300I118990J95255D01*
G03X145280Y2164010I-6722J7617D01*
G02X7580Y2216450I-18287J158992D01*
G03X-7580I-7580J-6759D01*
G02X-246420I-119420J106550D01*
G03X-261580I-7580J-6759D01*
G02X-500420I-119420J106550D01*
G03X-515580I-7580J-6759D01*
G02X-754420I-119420J106550D01*
G03X-769580I-7580J-6759D01*
G02X-1008420I-119420J106550D01*
G03X-1023580I-7580J-6759D01*
G02X-1262420I-119420J106550D01*
G03X-1277580I-7580J-6759D01*
G02X-1516420I-119420J106550D01*
G03X-1531580I-7580J-6759D01*
G02X-1770420I-119420J106550D01*
G03X-1785580I-7580J-6759D01*
G02X-2024420I-119420J106550D01*
G03X-2039580I-7580J-6759D01*
G02X-2237800Y2183700I-119419J106548D01*
G03X-2252960Y2174860I-5001J-8842D01*
G01Y2162960D01*
X-2573040D01*
Y2483040D01*
X-2561140D01*
G03X-2552300Y2498200I-2J10159D01*
G02X-2293580Y2683550I139293J78809D01*
G03X-2278420I7580J6759D01*
G02X-2039580I119420J-106550D01*
G03X-2024420I7580J6759D01*
G02X-1785580I119420J-106550D01*
G03X-1770420I7580J6759D01*
G02X-1531580I119420J-106550D01*
G03X-1516420I7580J6759D01*
G02X-1277580I119420J-106550D01*
G03X-1262420I7580J6759D01*
G02X-1023580I119420J-106550D01*
G03X-1008420I7580J6759D01*
G02X-769580I119420J-106550D01*
G03X-754420I7580J6759D01*
G02X-515580I119420J-106550D01*
G03X-500420I7580J6759D01*
G02X-261580I119420J-106550D01*
G03X-246420I7580J6759D01*
G02X-7580I119420J-106550D01*
G03X7580I7580J6759D01*
G02X246420I119420J-106550D01*
G03X261580I7580J6759D01*
G02X500420I119420J-106550D01*
G03X515580I7580J6759D01*
G02X754420I119420J-106550D01*
G03X769580I7580J6759D01*
G02X1008420I119420J-106550D01*
G03X1023580I7580J6759D01*
G02X1262420I119420J-106550D01*
G03X1277580I7580J6759D01*
G02X1516420I119420J-106550D01*
G03X1531580I7580J6759D01*
G02X1770420I119420J-106550D01*
G03X1785580I7580J6759D01*
G02X2024420I119420J-106550D01*
G03X2039580I7580J6759D01*
G02X2278420I119420J-106550D01*
G03X2293580I7580J6759D01*
G02X2519550Y2457580I119420J-106550D01*
G03Y2442420I6759J-7580D01*
G02X2389740Y2164660I-106547J-119419D01*
G03X2378100Y2154610I-1480J-10052D01*
G01Y2072660D01*
X2707660D01*
Y1737340D01*
X2700670D01*
G03X2691490Y1722830I3J-10161D01*
G02X2657350Y1531260I-151491J-71830D01*
G03Y1516740I7112J-7260D01*
G02Y1277260I-117350J-119740D01*
G03Y1262740I7112J-7260D01*
G02X2396930Y1055590I-117347J-119746D01*
G03X2378100Y1050290I-8670J-5297D01*
G01Y850840D01*
X2251100Y723840D01*
Y541690D01*
G03X2262810Y531640I10162J-7D01*
G02Y230360I23190J-150640D01*
G03X2251100Y220310I-1548J-10043D01*
G01Y-86220D01*
X2297850Y-132970D01*
Y-135600D01*
X2314600Y-152350D01*
Y-415960D01*
G03X2326360Y-425990I10160J3D01*
G02X2439780Y-455060I23140J-145511D01*
G03X2456160Y-447030I6220J8034D01*
G01Y-424160D01*
X2750840D01*
Y-718840D01*
X2456160D01*
Y-695970D01*
G03X2439780Y-687940I-10160J-4D01*
G02X2327550Y-717200I-90286J116438D01*
G02X2261990Y-797620I-105047J18704D01*
G02X2095500Y-911250I-102993J-27881D01*
G02X1968500I-63500J85750D01*
G02X1802010Y-797620I-63497J85749D01*
G02X1749400Y-644630I39491J99121D01*
G01Y-355640D01*
X1622400Y-228640D01*
Y578610D01*
G03X1605060Y585800I-10159J3D01*
G01X1498660Y479400D01*
X876210D01*
G03X866280Y467090I0J-10160D01*
G02X847750Y381000I-104281J-22594D01*
G02X801490Y218380I-85749J-63497D01*
G02X790600Y136630I-102991J-27881D01*
G01Y-165160D01*
X523360Y-432400D01*
G03X524990Y-448090I7185J-7183D01*
G02X321090Y-651990I-80490J-123410D01*
G03X305400Y-650360I-8507J-5555D01*
G01X110420Y-845340D01*
G03X116290Y-862600I7185J-7185D01*
G02X-94400Y-1073290I-24290J-186400D01*
G03X-111660Y-1067420I-10075J-1315D01*
G01X-288900Y-1244660D01*
Y-1411410D01*
G03X-277330Y-1421470I10159J1D01*
G02X-373740Y-1704850I23332J-166028D01*
G03X-388260I-7260J-7112D01*
G02X-627740I-119740J117350D01*
G03X-642260I-7260J-7112D01*
G02X-881740I-119740J117350D01*
G03X-896260I-7260J-7112D01*
G02X-1093110Y-1736370I-119739J117352D01*
G01X-1096410Y-1734660D01*
X-1168350Y-1806600D01*
G37*
G54D33*
X2900000Y2450000D03*
Y-2450000D03*
X-2900000D03*
Y2450000D03*
G54D29*
X-2468500Y0D03*
G54D30*
X-1868500D03*
G54D32*
X2794000Y381000D03*
G54D31*
X444500Y-1079500D03*
%LPD*%
G75*
G36*
G01X-1357970Y738670D02*
G03X-1372510Y833830I-166029J23322D01*
G02X-1363330Y848340I9183J4349D01*
G01X-1356340D01*
Y889000D01*
X-1290340D01*
Y727100D01*
X-1347910D01*
G02X-1357970Y738670I1J10159D01*
G37*
G36*
G01X396320Y727100D02*
G02X389140Y744440I3J10158D01*
G01X446500Y801810D01*
G03X571500Y803250I61504J87190D01*
G03X698500I63500J85750D01*
G03X854100Y942870I63498J85749D01*
G01Y1470130D01*
G03X698500Y1609750I-92102J53871D01*
G03X571500I-63500J-85750D01*
G03X499900Y1630390I-63494J-85752D01*
G02X488970Y1640520I-770J10131D01*
G01Y1822720D01*
X373900Y1937790D01*
X376500Y1941310D01*
G03X354840Y2146300I-122500J90696D01*
G02X362720Y2164010I6722J7617D01*
G03X500420Y2216450I18287J158992D01*
G02X515580I7580J-6759D01*
G03X754420I119420J106550D01*
G02X769580I7580J-6759D01*
G03X1008420I119420J106550D01*
G02X1023580I7580J-6759D01*
G03X1262420I119420J106550D01*
G02X1277580I7580J-6759D01*
G03X1420260Y2164660I119415J106551D01*
G02X1431900Y2154610I1480J-10052D01*
G01Y2120840D01*
X1622400Y1930340D01*
Y1570320D01*
G02X1602570Y1567220I-10159J8D01*
G03X1404120Y1138010I-332568J-106716D01*
G02X1418110Y1129880I3906J-9380D01*
G03X1431900Y1089120I105890J13112D01*
G01Y800140D01*
X1358860Y727100D01*
X396320D01*
G37*
G54D10*
X-2900000Y-2450000D03*
Y2450000D03*
X2900000Y-2450000D03*
Y2450000D03*
G54D11*
X-2468500Y0D03*
G54D20*
X-1143000Y762000D03*
X2603500Y-571500D03*
G54D12*
X-1778000Y-1587500D03*
X-2032000D03*
X-1016000D03*
X-1270000D03*
X-1524000D03*
Y-1270000D03*
Y-1016000D03*
Y1460500D03*
Y762000D03*
Y1714500D03*
X-254000Y-1587500D03*
X-508000D03*
X-762000D03*
X1079500D03*
X825500D03*
X571500D03*
X1841500D03*
X1587500D03*
X1333500D03*
X2349500D03*
X2095500D03*
X2540000Y1143000D03*
Y1397000D03*
Y1651000D03*
G54D21*
X-1143000D03*
Y1968500D03*
X-127000Y1651000D03*
Y1968500D03*
X254000Y1651000D03*
Y2032000D03*
Y1841500D03*
X2286000Y381000D03*
G54D13*
X-2286000Y-1587500D03*
X-1524000Y-762000D03*
Y1016000D03*
Y1968500D03*
X317500Y-1587500D03*
X2540000Y1905000D03*
G54D22*
X444500Y-1079500D03*
Y-571500D03*
X-254000Y762000D03*
X2349500Y-571500D03*
G54D23*
X127000Y1206500D03*
G54D14*
X-1868500Y0D03*
G54D24*
X1270000Y1460500D03*
G54D15*
X-2222500Y2032000D03*
X-2095500D03*
X-1968500D03*
X-825500Y444500D03*
X-698500D03*
X-762000Y952500D03*
X-635000D03*
X-889000Y1968500D03*
X-952500Y1524000D03*
X-508000Y1651000D03*
X63500Y381000D03*
X-63500D03*
X63500Y889000D03*
X-63500D03*
X-254000Y2032000D03*
X63500Y1524000D03*
X-254000D03*
X762000Y317500D03*
Y444500D03*
X444500Y190500D03*
X571500D03*
X698500D03*
X508000Y889000D03*
X635000D03*
X762000D03*
X508000Y1524000D03*
X635000D03*
X762000D03*
X1841500Y-698500D03*
X1905000Y-825500D03*
X1651000Y1143000D03*
X1524000Y1142990D03*
X2032000Y-825500D03*
X1968500Y-698500D03*
X2159000Y-825500D03*
X2095500Y-698500D03*
X2222500D03*
G54D16*
X-2413000Y2323000D03*
G54D25*
X2794000Y381000D03*
G54D26*
G01X-1561000Y2159000D02*
X-2286000D01*
X-2413000Y2032000D01*
G01X-1905000Y2577000D02*
X-1751500Y2730500D01*
G01X-2058500D02*
X-2603500D01*
G01X-1751500D02*
X-2058500D01*
G01D02*
X-1905000Y2577000D01*
G01X-1524000Y1016000D02*
X-1388100D01*
X-1333500Y1070600D01*
Y1422400D01*
X-1231900Y1524000D01*
X-952500D01*
G01X-1524000Y1714500D02*
X-1388100D01*
X-1333500Y1769100D01*
Y1905000D01*
X-1270000Y1968500D01*
X-1143000D01*
G01X254000Y2159000D02*
X-1233000D01*
G01D02*
X-1561000D01*
G01X-1233000D02*
X-1397000Y2323000D01*
G01X-1751500Y2730500D02*
X-1042500D01*
G01X-1561000Y2159000D02*
X-1397000Y2323000D01*
G01X-735500Y2730500D02*
X-280500D01*
G01X-889000Y2577000D02*
X-735500Y2730500D01*
G01D02*
X-1042500D01*
G01D02*
X-889000Y2577000D01*
G01X254000Y1841500D02*
X317500D01*
X381000Y1778000D01*
Y889000D01*
X254000Y762000D01*
X-254000D01*
G01X254000Y2032000D02*
Y2159000D01*
G01X-127000Y1651000D02*
X254000D01*
G01X471000Y2159000D02*
X254000D01*
G01X26500Y2730500D02*
X989500D01*
G01X-127000Y2577000D02*
X26500Y2730500D01*
G01D02*
X-280500D01*
G01D02*
X-127000Y2577000D01*
G01X1143000D02*
X1296500Y2730500D01*
G01D02*
X989500D01*
G01X471000Y2159000D02*
X635000Y2323000D01*
G01X1397000Y2159000D02*
X471000D01*
G01X989500Y2730500D02*
X1143000Y2577000D01*
G01X1804500Y2730500D02*
X2603500D01*
G01X1651000Y2577000D02*
X1804500Y2730500D01*
G01D02*
X1497500D01*
G01D02*
X1651000Y2577000D01*
G01X1296500Y2730500D02*
X1497500D01*
G54D17*
X-2159000Y2323000D03*
X-1905000D03*
Y2577000D03*
X-2159000D03*
X-2413000D03*
X-1651000Y2323000D03*
X-1397000D03*
X-1143000D03*
Y2577000D03*
X-1397000D03*
X-1651000D03*
X-889000Y2323000D03*
X-635000D03*
X-381000D03*
Y2577000D03*
X-635000D03*
X-889000D03*
X-127000Y2323000D03*
X127000D03*
X381000D03*
Y2577000D03*
X127000D03*
X-127000D03*
X635000Y2323000D03*
X889000D03*
X1143000D03*
Y2577000D03*
X889000D03*
X635000D03*
X1397000Y2323000D03*
X1651000D03*
X1905000D03*
Y2577000D03*
X1651000D03*
X1397000D03*
X2159000Y2323000D03*
X2413000D03*
Y2577000D03*
X2159000D03*
G54D27*
G01X-2711090Y0D02*
X-2468500D01*
G01Y-242590D02*
Y0D01*
G01D02*
Y242590D01*
G01Y0D02*
X-2225910D01*
G01X-1696740Y-1016000D02*
X-1524000D01*
G01D02*
X-1351260D01*
G01X-1696740Y762000D02*
X-1524000D01*
G01D02*
X-1351260D01*
G01X-1524000Y1287760D02*
Y1460500D01*
G01X-1696740D02*
X-1524000D01*
G01X-254000Y-1760240D02*
Y-1587500D01*
G01X292080Y-1079500D02*
X444500D01*
G01X-254000Y-1587500D02*
Y-1414760D01*
G01Y-1587500D02*
X-81260D01*
G01X96500Y2032000D02*
X254000D01*
G01D02*
X411500D01*
G01X444500Y-1231920D02*
Y-1079500D01*
G01D02*
Y-927080D01*
G01Y-1079500D02*
X596920D01*
G01X915650Y1460500D02*
X1270000D01*
G01Y-749320D02*
Y-571500D01*
G01D02*
Y-393680D01*
G01Y1106150D02*
Y1460500D01*
G01D02*
Y1814850D01*
G01X2349500Y-1760240D02*
Y-1587500D01*
G01D02*
Y-1414760D01*
G01Y-1587500D02*
X2522240D01*
G01X2603500Y-723920D02*
Y-571500D01*
G01D02*
Y-419080D01*
G01Y-571500D02*
X2755920D01*
G01X2636500Y381000D02*
X2794000D01*
G01X2540000Y970260D02*
Y1143000D01*
G01D02*
X2712740D01*
G01X2413000Y2157880D02*
Y2323000D01*
G01D02*
X2578120D01*
G01X2794000Y223500D02*
Y381000D01*
G01D02*
Y538500D01*
G01Y381000D02*
X2951500D01*
G54D18*
X-1108000Y-1049000D03*
Y181000D03*
X-508000Y381000D03*
X92000Y-1049000D03*
Y181000D03*
G54D28*
G01X-2032000Y-1587500D02*
X-1841500Y-1397000D01*
X-1270000D01*
X-1079500Y-1206500D01*
X-952500D01*
X-825500Y-1079500D01*
Y444500D01*
G01X762000Y317500D02*
X635000Y444500D01*
X-317510D01*
X-444510Y571500D01*
X-825510D01*
X-889010Y508000D01*
X-1968510D01*
X-2222500Y761990D01*
Y2032000D01*
G01X762000Y444500D02*
X698500Y508000D01*
X-314890D01*
X-425140Y618250D01*
X-427740D01*
X-444490Y635000D01*
X-888990D01*
X-952490Y571500D01*
X-1904990D01*
X-2095500Y762010D01*
Y2032000D01*
G01X-1968500D02*
Y761990D01*
X-1841510Y635000D01*
X-1018630D01*
X-971870Y681760D01*
X-969230D01*
X-952490Y698500D01*
X-444510D01*
X-427760Y681750D01*
X-425120D01*
X-408370Y665000D01*
X-405770D01*
X-312270Y571500D01*
X1460510D01*
X1651000Y761990D01*
Y1143000D01*
G01X-2571750Y2698750D02*
Y2127250D01*
G01X-2603500Y2730500D02*
X-2571750Y2698750D01*
G01X-1524000Y-1587500D02*
X-1397000Y-1714500D01*
X-1206500D01*
X-1143000Y-1651000D01*
Y-1529240D01*
X-1010760Y-1397000D01*
X-762000D01*
X-571500Y-1206500D01*
Y-1016000D01*
X-254000Y-698500D01*
Y63500D01*
X63500Y381000D01*
G01X-698500Y444500D02*
Y-1079500D01*
X-889000Y-1270000D01*
X-1016000D01*
X-1206500Y-1460500D01*
X-1651000D01*
X-1778000Y-1587500D01*
G01X-1270000D02*
X-1185130Y-1502630D01*
X-1182510D01*
X-1013380Y-1333500D01*
X-825500D01*
X-635000Y-1143000D01*
Y-952500D01*
X-317500Y-635000D01*
Y127000D01*
X-63500Y381000D01*
G01X444500Y190500D02*
Y-127000D01*
X-508000Y-1079500D01*
Y-1270000D01*
X-698500Y-1460500D01*
X-889000D01*
X-1016000Y-1587500D01*
G01X-762000D02*
X-698500D01*
X-444500Y-1333500D01*
Y-1143010D01*
X571500Y-127010D01*
Y190500D01*
G01X-508000Y-1587500D02*
X-381000Y-1460500D01*
Y-1206510D01*
X698500Y-127010D01*
Y190500D01*
G01X1524000Y1142990D02*
Y761990D01*
X1397010Y635000D01*
X-309650D01*
X-386400Y711750D01*
X-389000D01*
X-405750Y728500D01*
X-408390D01*
X-425140Y745250D01*
X-427750D01*
X-444500Y762000D01*
X-698490D01*
X-889000Y952510D01*
Y1968500D01*
G01X-508000Y1651000D02*
Y1206500D01*
X-762000Y952500D01*
G01X-635000D02*
X-381000Y1206500D01*
Y1905000D01*
X-254000Y2032000D01*
G01X63500Y1524000D02*
X-63500Y1397000D01*
Y1016000D01*
X63500Y889000D01*
G01X-254000Y1524000D02*
Y1079500D01*
X-63500Y889000D01*
G01X508000D02*
Y1524000D01*
G01X635000Y889000D02*
Y1524000D01*
G01X762000Y889000D02*
Y1524000D01*
G01X1397000Y2577000D02*
X1524000Y2450000D01*
Y2158990D01*
X1714500Y1968490D01*
Y-190490D01*
X1841500Y-317490D01*
Y-698500D01*
G01X1905000Y-825500D02*
Y-285750D01*
X1778000Y-158750D01*
Y2032000D01*
X1651000Y2159000D01*
Y2323000D01*
G01X1968500Y-698500D02*
Y-254000D01*
X1841500Y-127000D01*
Y2095510D01*
X1778000Y2159010D01*
Y2450000D01*
X1905000Y2577000D01*
G01Y2323000D02*
Y-95250D01*
X2032000Y-222250D01*
Y-825500D01*
G01X2159000D02*
Y-190490D01*
X2095500Y-126990D01*
Y825510D01*
X2159000Y889010D01*
Y2323000D01*
G01X2095500Y-698500D02*
Y-222250D01*
X2078750Y-205500D01*
Y-202880D01*
X2019700Y-143830D01*
Y2437700D01*
X2159000Y2577000D01*
G01X2222500Y-698500D02*
Y-190500D01*
X2205750Y-173750D01*
Y-171120D01*
X2159000Y-124370D01*
Y761990D01*
X2286000Y888990D01*
Y2450000D01*
X2413000Y2577000D01*
G01X2571750Y2698750D02*
Y2159000D01*
G01X2603500Y2730500D02*
X2571750Y2698750D01*
G54D19*
X-1143000Y1206500D03*
X1270000Y-571500D03*
X1016000D03*
X1524000D03*
M02*
